<svg width="178" height="59" viewBox="0 0 178 59" fill="none" xmlns="http://www.w3.org/2000/svg">
<g clip-path="url(#clip0_239_112)">
<path d="M8.33 0.5H169.68C171.754 0.5 173.743 1.32389 175.21 2.79043C176.676 4.25696 177.5 6.24601 177.5 8.32V50.58C177.5 52.654 176.676 54.643 175.21 56.1096C173.743 57.5761 171.754 58.4 169.68 58.4H8.32C6.24601 58.4 4.25696 57.5761 2.79043 56.1096C1.32389 54.643 0.5 52.654 0.5 50.58V8.33C0.5 6.25335 1.32494 4.26176 2.79335 2.79335C4.26176 1.32494 6.25335 0.5 8.33 0.5Z" fill="#231F20"/>
<path d="M46.6598 38.7697C45.9514 40.4613 45.0842 42.0819 44.0698 43.6097C42.3798 46.1797 40.0098 49.3697 37.0698 49.3897C34.4598 49.3897 33.7898 47.6897 30.2398 47.7097C26.6898 47.7297 25.9998 49.4197 23.3398 49.3997C20.3998 49.3997 18.1598 46.4897 16.4698 43.9297C11.7598 36.7597 11.2698 28.3497 14.1798 23.9297C15.0601 22.4758 16.2834 21.2598 17.7426 20.3881C19.2017 19.5164 20.8523 19.0157 22.5498 18.9297C25.6698 18.9297 27.6298 20.6397 30.2098 20.6397C32.7898 20.6397 34.2098 18.9297 37.8298 18.9297C39.3265 18.9969 40.7897 19.395 42.1142 20.0953C43.4387 20.7956 44.5915 21.7807 45.4898 22.9797C44.051 23.8011 42.8743 25.0133 42.096 26.4759C41.3177 27.9385 40.9696 29.5916 41.092 31.2439C41.2144 32.8962 41.8024 34.4799 42.7878 35.8118C43.7731 37.1437 45.1156 38.1693 46.6598 38.7697Z" fill="white"/>
<path d="M35.1002 16C35.8334 15.0974 36.3791 14.0576 36.7053 12.9415C37.0316 11.8254 37.1319 10.6554 37.0002 9.5C34.6257 9.7839 32.4465 10.9557 30.9002 12.78C30.1395 13.6325 29.5679 14.6364 29.2232 15.7257C28.8785 16.8151 28.7684 17.9651 28.9002 19.1C30.1 19.0813 31.2802 18.793 32.3534 18.2564C33.4266 17.7198 34.3654 16.9486 35.1002 16Z" fill="white"/>
<path d="M60.9998 23.7695L54.2598 43.6195H57.3398L59.3398 37.5295H65.8698L67.9998 43.6195H71.1698L64.3598 23.7695H60.9998ZM62.5998 26.9995C62.8298 27.8795 63.0698 28.7995 63.3898 29.7995L65.2098 35.0595H59.9998L61.7998 29.7595C62.0998 28.9395 62.3598 27.9995 62.5998 26.9995Z" fill="white"/>
<path d="M79.8602 28.9196C78.9366 28.8786 78.0171 29.0662 77.1833 29.4657C76.3495 29.8651 75.6271 30.4641 75.0802 31.2096L74.9602 29.2096H72.2202V29.4696C72.3002 30.6996 72.3402 32.0496 72.3402 33.9896V49.2896H75.3402V42.1696C75.853 42.7486 76.4872 43.2075 77.1976 43.5134C77.908 43.8194 78.6771 43.9649 79.4502 43.9396C80.3012 43.9458 81.1443 43.7767 81.9271 43.443C82.7098 43.1092 83.4155 42.6179 84.0002 41.9996C85.3822 40.4039 86.0982 38.3382 86.0002 36.2296C86.0609 34.3364 85.4478 32.4831 84.2702 30.9996C83.7338 30.3493 83.0603 29.8257 82.2979 29.4661C81.5356 29.1066 80.7031 28.9199 79.8602 28.9196ZM79.1102 31.4096C81.7902 31.4096 82.9802 33.8896 82.9802 36.3396C82.9802 39.5096 81.4602 41.4796 78.9802 41.4796C78.1633 41.481 77.37 41.2061 76.7291 40.6996C76.0882 40.1931 75.6375 39.4847 75.4502 38.6896C75.3689 38.3627 75.3319 38.0263 75.3402 37.6896V35.3096C75.3509 35.0604 75.3844 34.8127 75.4402 34.5696C75.4402 34.4796 75.4402 34.3996 75.4402 34.3196C75.6374 33.4934 76.1064 32.7575 76.7719 32.2298C77.4374 31.7021 78.2609 31.4133 79.1102 31.4096Z" fill="white"/>
<path d="M95.3202 28.9192C94.3982 28.8799 93.4807 29.0683 92.6488 29.4677C91.8169 29.8671 91.0961 30.4652 90.5502 31.2091L90.4302 29.2091H87.6802V29.4691C87.7602 30.6991 87.7902 32.0492 87.7902 33.9892V49.2892H90.7902V42.1691C91.301 42.748 91.9334 43.2068 92.6422 43.5128C93.351 43.8188 94.1186 43.9644 94.8902 43.9391C95.7462 43.9495 96.595 43.7825 97.3832 43.4486C98.1715 43.1147 98.8821 42.6212 99.4702 41.9992C100.857 40.4061 101.573 38.3385 101.47 36.2291C101.528 34.3347 100.911 32.4813 99.7302 30.9992C99.1952 30.3473 98.522 29.8226 97.7593 29.4628C96.9966 29.1031 96.1634 28.9174 95.3202 28.9192ZM94.5702 31.4092C97.2502 31.4092 98.4502 33.8892 98.4502 36.3392C98.4502 39.5092 96.9202 41.4791 94.4502 41.4791C93.6325 41.4793 92.8386 41.2041 92.1964 40.698C91.5542 40.1918 91.1011 39.4842 90.9102 38.6891C90.8327 38.3617 90.7991 38.0254 90.8102 37.6891V35.3092C90.8178 35.057 90.8479 34.806 90.9002 34.5592C90.905 34.4792 90.905 34.3991 90.9002 34.3191C91.099 33.4939 91.5684 32.7589 92.2335 32.2315C92.8987 31.7041 93.7213 31.4146 94.5702 31.4092Z" fill="white"/>
<path d="M114.7 32.1795C111.89 31.0995 110.99 30.2395 110.99 28.6695C110.99 27.3395 112.05 25.9995 114.41 25.9995C115.642 25.9701 116.859 26.2778 117.93 26.8895L118.19 27.0395L119.04 24.5395L118.87 24.4395C117.523 23.7284 116.012 23.3836 114.49 23.4395C110.66 23.4395 107.99 25.6995 107.99 28.9295C107.99 31.5395 109.66 33.3695 113.26 34.6795C115.81 35.6295 116.76 36.5995 116.76 38.2795C116.76 40.1695 115.29 41.3494 112.94 41.3494C111.41 41.3493 109.911 40.9234 108.61 40.1194L108.35 39.9495L107.55 42.5195L107.69 42.6095C109.241 43.4781 110.992 43.9295 112.77 43.9194C117.93 43.9194 119.77 40.7695 119.77 38.0795C119.77 35.3895 118.29 33.5995 114.7 32.1795Z" fill="white"/>
<path d="M125.17 25.8203L122.17 26.7403V29.2303H120.02V31.6403H122.17V39.0003C122.035 40.3492 122.39 41.7018 123.17 42.8103C123.549 43.1922 124.004 43.4908 124.505 43.6871C125.006 43.8834 125.542 43.9731 126.08 43.9503C126.868 43.9581 127.652 43.8364 128.4 43.5903L128.57 43.5303L128.42 41.1303L128.13 41.2103C127.679 41.342 127.21 41.3994 126.74 41.3803C125.57 41.3803 125.08 40.6403 125.08 38.9103V31.6403H128.7V29.2303H125.08L125.17 25.8203Z" fill="white"/>
<path d="M136.23 28.9202C132.03 28.9202 129.1 32.0602 129.1 36.5402C129.1 41.0202 131.94 43.9402 136 43.9402C139.44 43.9402 143.14 41.5402 143.14 36.2802C143.209 34.3432 142.533 32.4534 141.25 31.0002C140.606 30.3211 139.826 29.7851 138.961 29.4267C138.096 29.0684 137.166 28.8958 136.23 28.9202ZM136.15 31.2902C138.85 31.2902 140.08 33.9202 140.08 36.3702C140.08 39.3702 138.4 41.5702 136.08 41.5702C133.8 41.5702 132.15 39.4202 132.15 36.4602C132.13 33.8902 133.37 31.2902 136.15 31.2902Z" fill="white"/>
<path d="M152.36 29.0607H152.18C151.938 29.0012 151.69 28.971 151.44 28.9707C150.65 28.9876 149.879 29.2225 149.214 29.6495C148.549 30.0766 148.015 30.6791 147.67 31.3907L147.58 29.2807H144.89V29.5407C144.97 30.7307 145 32.0607 145 33.8607V43.6707H148V36.0007C147.995 35.6092 148.022 35.2179 148.08 34.8307C148.157 34.0337 148.518 33.2911 149.099 32.7398C149.68 32.1885 150.44 31.8656 151.24 31.8307C151.507 31.8139 151.774 31.8139 152.04 31.8307H152.36V29.0607Z" fill="white"/>
<path d="M159.12 28.8906C155.12 28.8906 152.33 32.0806 152.33 36.6606C152.33 41.0606 155.1 43.9106 159.4 43.9106C161.033 43.9452 162.655 43.6351 164.16 43.0006L164.34 42.9206L163.76 40.6806L163.51 40.7806C162.316 41.2606 161.036 41.4887 159.75 41.4506C159.16 41.4965 158.567 41.4166 158.011 41.2163C157.454 41.016 156.946 40.6998 156.521 40.2886C156.096 39.8774 155.762 39.3806 155.543 38.831C155.324 38.2815 155.224 37.6917 155.25 37.1006H164.94V36.9106C165.014 36.4949 165.044 36.0726 165.03 35.6506C165.07 32.5506 163.51 28.8906 159.12 28.8906ZM158.92 31.1806C159.324 31.165 159.728 31.2314 160.106 31.3757C160.484 31.5201 160.829 31.7395 161.12 32.0206C161.777 32.8005 162.132 33.7908 162.12 34.8106H155.27C155.59 33.0806 156.67 31.1806 158.92 31.1806Z" fill="white"/>
<path d="M54.2598 10.209C55.2141 10.0762 56.1762 10.0061 57.1398 9.99904C58.6421 9.87884 60.1389 10.2893 61.3698 11.159C61.8634 11.5676 62.2545 12.0862 62.5115 12.6731C62.7685 13.2601 62.8844 13.8992 62.8498 14.539C62.8773 15.2196 62.7575 15.898 62.4986 16.5279C62.2397 17.1579 61.8478 17.7245 61.3498 18.189C60.0164 19.1768 58.3755 19.6588 56.7198 19.549C55.8981 19.5614 55.0764 19.5213 54.2598 19.429V10.209ZM55.6198 18.539C56.0716 18.5842 56.5258 18.6009 56.9798 18.589C59.8598 18.589 61.4298 17.139 61.4298 14.589C61.4298 12.349 60.0498 10.969 57.1998 10.969C56.6702 10.9624 56.1411 11.0059 55.6198 11.099V18.539Z" fill="white"/>
<path d="M67.68 19.6397C67.2115 19.6675 66.7423 19.5978 66.3021 19.4348C65.862 19.2719 65.4604 19.0193 65.1229 18.6931C64.7855 18.3669 64.5194 17.9742 64.3416 17.5398C64.1638 17.1055 64.0781 16.6389 64.09 16.1697C64.075 15.683 64.162 15.1986 64.3454 14.7475C64.5288 14.2965 64.8045 13.8888 65.1549 13.5507C65.5052 13.2126 65.9224 12.9515 66.3797 12.7843C66.837 12.6171 67.3242 12.5474 67.81 12.5797C68.2769 12.5447 68.746 12.6078 69.1871 12.7647C69.6282 12.9217 70.0317 13.1691 70.3716 13.4911C70.7115 13.8131 70.9803 14.2026 71.1609 14.6346C71.3414 15.0666 71.4297 15.5316 71.42 15.9997C71.4349 16.4868 71.348 16.9716 71.1647 17.4231C70.9814 17.8746 70.7058 18.2829 70.3557 18.6218C70.0055 18.9607 69.5884 19.2227 69.1311 19.3911C68.6738 19.5595 68.1864 19.6305 67.7 19.5997L67.68 19.6397ZM67.68 18.7197C68.0092 18.7089 68.3327 18.6308 68.6305 18.4901C68.9283 18.3494 69.1941 18.1492 69.4115 17.9018C69.6289 17.6545 69.7933 17.3651 69.8945 17.0517C69.9957 16.7383 70.0317 16.4075 70 16.0797C70.0431 15.7563 70.0165 15.4275 69.9221 15.1152C69.8277 14.8029 69.6677 14.5144 69.4528 14.269C69.2379 14.0235 68.973 13.8269 68.6759 13.6921C68.3787 13.5574 68.0563 13.4877 67.73 13.4877C67.4038 13.4877 67.0813 13.5574 66.7842 13.6921C66.4871 13.8269 66.2222 14.0235 66.0073 14.269C65.7924 14.5144 65.6324 14.8029 65.538 15.1152C65.4436 15.4275 65.417 15.7563 65.46 16.0797C65.4285 16.399 65.4621 16.7214 65.5589 17.0274C65.6557 17.3333 65.8136 17.6165 66.023 17.8596C66.2325 18.1027 66.4891 18.3007 66.7774 18.4417C67.0657 18.5827 67.3796 18.6636 67.7 18.6797L67.68 18.7197Z" fill="white"/>
<path d="M73.5702 12.7409L74.5702 16.1509C74.7702 16.9009 74.9702 17.6109 75.1102 18.3109C75.2802 17.6309 75.5202 16.9009 75.7702 16.1709L77.0002 12.7409H78.2002L79.3602 16.1109C79.6402 16.9009 79.8602 17.6309 80.0302 18.3109C80.1736 17.5696 80.364 16.8381 80.6002 16.1209L81.6702 12.7409H83.0202L80.6002 19.4809H79.4102L78.2602 16.2609C77.997 15.5209 77.7767 14.7663 77.6002 14.0009C77.4169 14.7634 77.1898 15.5146 76.9202 16.2509L75.7102 19.4509H74.4402L72.1802 12.7109L73.5702 12.7409Z" fill="white"/>
<path d="M84.4301 14.5604C84.4301 13.8504 84.4301 13.2904 84.3701 12.7404H85.5801L85.6501 13.8404C85.9214 13.436 86.2918 13.1078 86.726 12.8873C87.1601 12.6667 87.6435 12.561 88.1301 12.5804C88.5011 12.5663 88.8707 12.6327 89.2135 12.775C89.5563 12.9174 89.8643 13.1323 90.1161 13.4051C90.3679 13.6778 90.5577 14.0019 90.6723 14.3549C90.7869 14.708 90.8237 15.0817 90.7801 15.4504V19.4504H89.4501V15.5904C89.4501 14.5104 89.0001 13.5904 87.7101 13.5904C87.3158 13.5951 86.9318 13.7163 86.6061 13.9387C86.2805 14.1611 86.0279 14.4748 85.8801 14.8404C85.8178 15.0239 85.7874 15.2166 85.7901 15.4104V19.4804H84.4301V14.5604Z" fill="white"/>
<path d="M93 9.58984H94.37V19.4798H93V9.58984Z" fill="white"/>
<path d="M99.6999 19.6397C99.2314 19.6675 98.7622 19.5978 98.322 19.4348C97.8818 19.2719 97.4803 19.0193 97.1428 18.6931C96.8053 18.3669 96.5393 17.9742 96.3615 17.5398C96.1837 17.1055 96.098 16.6389 96.1099 16.1697C96.0934 15.6835 96.1791 15.1993 96.3613 14.7482C96.5436 14.2972 96.8184 13.8894 97.168 13.5511C97.5175 13.2128 97.9342 12.9516 98.391 12.7843C98.8477 12.6169 99.3345 12.5473 99.8199 12.5797C100.287 12.5447 100.756 12.6078 101.197 12.7647C101.638 12.9217 102.042 13.1691 102.381 13.4911C102.721 13.8131 102.99 14.2026 103.171 14.6346C103.351 15.0666 103.44 15.5316 103.43 15.9997C103.446 16.4863 103.361 16.9709 103.178 17.4224C102.996 17.8739 102.722 18.2823 102.372 18.6214C102.023 18.9605 101.606 19.2226 101.15 19.3911C100.693 19.5596 100.206 19.6306 99.7199 19.5997L99.6999 19.6397ZM99.6999 18.7197C100.028 18.7077 100.35 18.6285 100.646 18.4872C100.942 18.3458 101.206 18.1452 101.422 17.8978C101.637 17.6504 101.8 17.3614 101.899 17.0487C101.999 16.736 102.033 16.4062 102 16.0797C102.043 15.7563 102.016 15.4275 101.922 15.1152C101.828 14.8029 101.668 14.5144 101.453 14.269C101.238 14.0235 100.973 13.8269 100.676 13.6921C100.379 13.5574 100.056 13.4877 99.7299 13.4877C99.4037 13.4877 99.0812 13.5574 98.7841 13.6921C98.487 13.8269 98.2221 14.0235 98.0072 14.269C97.7922 14.5144 97.6322 14.8029 97.5378 15.1152C97.4434 15.4275 97.4169 15.7563 97.4599 16.0797C97.4283 16.3998 97.4623 16.723 97.5597 17.0296C97.6571 17.3362 97.8158 17.6198 98.0264 17.863C98.2369 18.1063 98.4947 18.3041 98.7841 18.4445C99.0736 18.5849 99.3885 18.6649 99.7099 18.6797L99.6999 18.7197Z" fill="white"/>
<path d="M110.43 17.8707C110.423 18.4094 110.459 18.9479 110.54 19.4807H109.32L109.19 18.6307C108.908 18.9581 108.555 19.2179 108.159 19.391C107.762 19.564 107.332 19.646 106.9 19.6307C106.62 19.6654 106.335 19.6418 106.064 19.5614C105.793 19.481 105.542 19.3454 105.326 19.1632C105.11 18.9811 104.934 18.7562 104.809 18.5028C104.684 18.2494 104.613 17.9729 104.6 17.6907C104.6 16.0607 106.21 15.1707 109.11 15.1807V15.0407C109.11 14.4807 108.94 13.4707 107.41 13.4807C106.711 13.4659 106.02 13.6385 105.41 13.9807L105.1 13.1607C105.866 12.7632 106.718 12.5606 107.58 12.5707C109.89 12.5707 110.44 13.9807 110.44 15.3307L110.43 17.8707ZM109.1 16.0007C107.62 16.0007 105.93 16.2107 105.93 17.5207C105.925 17.6845 105.955 17.8475 106.018 17.9987C106.081 18.1498 106.177 18.2856 106.297 18.3966C106.418 18.5077 106.561 18.5914 106.717 18.6422C106.872 18.6929 107.037 18.7094 107.2 18.6907C107.574 18.7079 107.945 18.6134 108.266 18.4193C108.586 18.2253 108.842 17.9403 109 17.6007C109.046 17.4759 109.066 17.3434 109.06 17.2107L109.1 16.0007Z" fill="white"/>
<path d="M119.09 9.59008V17.7401C119.09 18.3401 119.09 19.0201 119.15 19.4801H117.93L117.87 18.3101C117.604 18.7386 117.228 19.088 116.782 19.322C116.335 19.5559 115.834 19.6657 115.33 19.6401C114.888 19.6425 114.451 19.5538 114.045 19.3795C113.64 19.2052 113.274 18.9491 112.972 18.6272C112.67 18.3052 112.437 17.9244 112.289 17.5085C112.141 17.0926 112.08 16.6506 112.11 16.2101C112.073 15.7467 112.132 15.2805 112.284 14.8412C112.436 14.4019 112.678 13.9988 112.993 13.6577C113.309 13.3165 113.692 13.0445 114.119 12.8591C114.545 12.6736 115.005 12.5786 115.47 12.5801C115.9 12.5443 116.333 12.6172 116.728 12.7919C117.122 12.9666 117.467 13.2376 117.73 13.5801V9.58008L119.09 9.59008ZM117.73 15.4801C117.729 15.3018 117.709 15.124 117.67 14.9501C117.538 14.5287 117.27 14.1628 116.908 13.9095C116.547 13.6563 116.111 13.5299 115.67 13.5501C115.347 13.5561 115.028 13.6299 114.735 13.7668C114.442 13.9037 114.181 14.1006 113.969 14.3447C113.757 14.5889 113.598 14.8748 113.504 15.1841C113.409 15.4934 113.381 15.8191 113.42 16.1401C113.382 16.4544 113.411 16.7733 113.505 17.0756C113.599 17.378 113.756 17.6569 113.966 17.8941C114.176 18.1313 114.433 18.3213 114.722 18.4516C115.01 18.5819 115.323 18.6496 115.64 18.6501C116.09 18.6661 116.533 18.5297 116.896 18.2629C117.259 17.9961 117.521 17.6145 117.64 17.1801C117.682 17.0066 117.702 16.8286 117.7 16.6501L117.73 15.4801Z" fill="white"/>
<path d="M127.69 19.6397C127.221 19.669 126.75 19.6003 126.309 19.438C125.868 19.2757 125.465 19.0234 125.126 18.697C124.788 18.3707 124.521 17.9774 124.342 17.5423C124.164 17.1072 124.078 16.6398 124.09 16.1697C124.075 15.683 124.162 15.1986 124.345 14.7475C124.529 14.2965 124.804 13.8888 125.155 13.5507C125.505 13.2126 125.922 12.9515 126.38 12.7843C126.837 12.6171 127.324 12.5474 127.81 12.5797C128.277 12.5447 128.746 12.6078 129.187 12.7647C129.628 12.9217 130.032 13.1691 130.372 13.4911C130.711 13.8131 130.98 14.2026 131.161 14.6346C131.341 15.0666 131.43 15.5316 131.42 15.9997C131.435 16.4868 131.348 16.9716 131.165 17.4231C130.981 17.8746 130.706 18.2829 130.356 18.6218C130.005 18.9607 129.588 19.2227 129.131 19.3911C128.674 19.5595 128.186 19.6305 127.7 19.5997L127.69 19.6397ZM127.69 18.7197C128.019 18.709 128.342 18.6309 128.639 18.4901C128.937 18.3493 129.202 18.1489 129.418 17.9014C129.635 17.6538 129.798 17.3643 129.898 17.0509C129.999 16.7376 130.033 16.407 130 16.0797C130.043 15.7563 130.017 15.4275 129.922 15.1152C129.828 14.8029 129.668 14.5144 129.453 14.269C129.238 14.0235 128.973 13.8269 128.676 13.6921C128.379 13.5574 128.056 13.4877 127.73 13.4877C127.404 13.4877 127.081 13.5574 126.784 13.6921C126.487 13.8269 126.222 14.0235 126.007 14.269C125.792 14.5144 125.632 14.8029 125.538 15.1152C125.444 15.4275 125.417 15.7563 125.46 16.0797C125.428 16.3998 125.462 16.723 125.56 17.0296C125.657 17.3362 125.816 17.6198 126.026 17.863C126.237 18.1063 126.495 18.3041 126.784 18.4445C127.074 18.5849 127.389 18.6649 127.71 18.6797L127.69 18.7197Z" fill="white"/>
<path d="M133.14 14.5604C133.14 13.8504 133.14 13.2904 133.08 12.7404H134.29L134.36 13.8404C134.631 13.436 135.002 13.1078 135.436 12.8873C135.87 12.6667 136.353 12.561 136.84 12.5804C137.211 12.5663 137.581 12.6327 137.923 12.775C138.266 12.9174 138.574 13.1323 138.826 13.4051C139.078 13.6778 139.268 14.0019 139.382 14.3549C139.497 14.708 139.534 15.0817 139.49 15.4504V19.4504H138.13V15.5904C138.13 14.5104 137.68 13.5904 136.39 13.5904C135.995 13.5876 135.609 13.7059 135.284 13.9294C134.958 14.1529 134.709 14.4709 134.57 14.8404C134.5 15.0219 134.466 15.2156 134.47 15.4104V19.4804H133.11L133.14 14.5604Z" fill="white"/>
<path d="M146.66 11.1191V12.7391H148.66V13.6691H146.66V17.3091C146.66 18.1391 146.93 18.6191 147.66 18.6191C147.926 18.6267 148.191 18.5998 148.45 18.5391L148.52 19.4691C148.127 19.5831 147.719 19.6404 147.31 19.6391C147.043 19.6553 146.775 19.6176 146.522 19.5283C146.27 19.439 146.038 19.2998 145.84 19.1191C145.436 18.6225 145.246 17.986 145.31 17.3491V13.6691H144.15V12.7391H145.31V11.4991L146.66 11.1191Z" fill="white"/>
<path d="M150.15 9.58984H151.51V13.7998C151.754 13.421 152.101 13.1193 152.51 12.9298C152.937 12.6983 153.415 12.5779 153.9 12.5798C154.27 12.5697 154.639 12.6398 154.979 12.7853C155.32 12.9308 155.625 13.1482 155.874 13.4227C156.123 13.6972 156.31 14.0223 156.421 14.3756C156.533 14.729 156.566 15.1022 156.52 15.4698V19.4698H155.15V15.6098C155.15 14.5098 154.71 13.6098 153.42 13.6098C153.028 13.613 152.646 13.7312 152.32 13.9499C151.995 14.1686 151.741 14.478 151.59 14.8398C151.516 15.0237 151.485 15.2222 151.5 15.4198V19.4898H150.14L150.15 9.58984Z" fill="white"/>
<path d="M159.52 16.32C159.509 16.6486 159.569 16.9756 159.696 17.2787C159.824 17.5818 160.015 17.8539 160.257 18.0761C160.499 18.2984 160.787 18.4656 161.1 18.5664C161.413 18.6672 161.744 18.6991 162.07 18.66C162.778 18.679 163.483 18.5672 164.15 18.33L164.4 19.19C163.598 19.4895 162.746 19.6353 161.89 19.62C159.59 19.62 158.2 18.24 158.2 16.22C158.169 15.7429 158.238 15.2646 158.403 14.8158C158.568 14.3669 158.825 13.9575 159.157 13.6139C159.49 13.2702 159.89 12.9998 160.333 12.82C160.776 12.6402 161.252 12.5551 161.73 12.57C162.146 12.5582 162.56 12.6331 162.946 12.79C163.332 12.947 163.681 13.1825 163.97 13.4816C164.26 13.7808 164.484 14.1369 164.629 14.5275C164.774 14.918 164.835 15.3344 164.81 15.75C164.829 15.9429 164.829 16.1372 164.81 16.33L159.52 16.32ZM163.52 15.44C163.548 15.1809 163.519 14.9188 163.436 14.6717C163.353 14.4247 163.218 14.1985 163.039 14.0086C162.861 13.8187 162.643 13.6696 162.402 13.5714C162.16 13.4733 161.9 13.4285 161.64 13.44C161.103 13.4468 160.589 13.657 160.201 14.0282C159.813 14.3994 159.58 14.904 159.55 15.44H163.52Z" fill="white"/>
</g>
<defs>
<clipPath id="clip0_239_112">
<rect width="178.01" height="58.9" fill="white"/>
</clipPath>
</defs>
</svg>
