<?xml version="1.0" encoding="UTF-8"?> <svg xmlns="http://www.w3.org/2000/svg" viewBox="0 0 178.01 58.9"><defs><style>.cls-1{fill:#231f20;stroke:#fff;stroke-miterlimit:10;}.cls-2{fill:#fff;}</style></defs><title>Asset 18</title><g id="Layer_2" data-name="Layer 2"><g id="Layer_1-2" data-name="Layer 1"><path class="cls-1" d="M8.33.5H169.68a7.82,7.82,0,0,1,7.82,7.82V50.58a7.82,7.82,0,0,1-7.82,7.82H8.32A7.82,7.82,0,0,1,.5,50.58V8.33A7.83,7.83,0,0,1,8.33.5Z"></path><path class="cls-2" d="M46.66,38.77a29,29,0,0,1-2.59,4.84c-1.69,2.57-4.06,5.76-7,5.78-2.61,0-3.28-1.7-6.83-1.68S26,49.42,23.34,49.4c-2.94,0-5.18-2.91-6.87-5.47-4.71-7.17-5.2-15.58-2.29-20a10.4,10.4,0,0,1,8.37-5c3.12,0,5.08,1.71,7.66,1.71s4-1.71,7.62-1.71a10.14,10.14,0,0,1,7.66,4.05A8.77,8.77,0,0,0,46.66,38.77Z"></path><path class="cls-2" d="M35.1,16A8.74,8.74,0,0,0,37,9.5a9.47,9.47,0,0,0-6.1,3.28,8.09,8.09,0,0,0-2,6.32A8,8,0,0,0,35.1,16Z"></path><path class="cls-2" d="M61,23.77,54.26,43.62h3.08l2-6.09h6.53L68,43.62h3.17L64.36,23.77ZM62.6,27c.23.88.47,1.8.79,2.8l1.82,5.26H60l1.8-5.3C62.1,28.94,62.36,28,62.6,27Z"></path><path class="cls-2" d="M79.86,28.92a5.62,5.62,0,0,0-4.78,2.29l-.12-2H72.22v.26c.08,1.23.12,2.58.12,4.52v15.3h3V42.17a5.26,5.26,0,0,0,4.11,1.77A6.2,6.2,0,0,0,84,42a8.23,8.23,0,0,0,2-5.77A8,8,0,0,0,84.27,31,5.72,5.72,0,0,0,79.86,28.92Zm-.75,2.49c2.68,0,3.87,2.48,3.87,4.93,0,3.17-1.52,5.14-4,5.14a3.62,3.62,0,0,1-3.53-2.79,3.76,3.76,0,0,1-.11-1V35.31a4.09,4.09,0,0,1,.1-.74c0-.09,0-.17,0-.25A3.79,3.79,0,0,1,79.11,31.41Z"></path><path class="cls-2" d="M95.32,28.92a5.62,5.62,0,0,0-4.77,2.29l-.12-2H87.68l0,.26c.08,1.23.11,2.58.11,4.52v15.3h3V42.17a5.24,5.24,0,0,0,4.1,1.77A6.2,6.2,0,0,0,99.47,42a8.18,8.18,0,0,0,2-5.77A8,8,0,0,0,99.73,31,5.69,5.69,0,0,0,95.32,28.92Zm-.75,2.49c2.68,0,3.88,2.48,3.88,4.93,0,3.17-1.53,5.14-4,5.14a3.64,3.64,0,0,1-3.54-2.79,3.8,3.8,0,0,1-.1-1V35.31a4.24,4.24,0,0,1,.09-.75,2,2,0,0,0,0-.24A3.8,3.8,0,0,1,94.57,31.41Z"></path><path class="cls-2" d="M114.7,32.18c-2.81-1.08-3.71-1.94-3.71-3.51,0-1.33,1.06-2.67,3.42-2.67a6.77,6.77,0,0,1,3.52.89l.26.15.85-2.5-.17-.1a8.7,8.7,0,0,0-4.38-1c-3.83,0-6.5,2.26-6.5,5.49,0,2.61,1.67,4.44,5.27,5.75,2.55.95,3.5,1.92,3.5,3.6,0,1.89-1.47,3.07-3.82,3.07a8.24,8.24,0,0,1-4.33-1.23l-.26-.17-.8,2.57.14.09a10.28,10.28,0,0,0,5.08,1.31c5.16,0,7-3.15,7-5.84S118.29,33.6,114.7,32.18Z"></path><path class="cls-2" d="M125.17,25.82l-3,.92v2.49h-2.15v2.41h2.15V39a5.64,5.64,0,0,0,1,3.81,3.87,3.87,0,0,0,2.91,1.14,7.2,7.2,0,0,0,2.32-.36l.17-.06-.15-2.4-.29.08a4.33,4.33,0,0,1-1.39.17c-1.17,0-1.66-.74-1.66-2.47V31.64h3.62V29.23h-3.62Z"></path><path class="cls-2" d="M136.23,28.92c-4.2,0-7.13,3.14-7.13,7.62s2.84,7.4,6.9,7.4h0c3.44,0,7.14-2.4,7.14-7.66A7.57,7.57,0,0,0,141.25,31,6.68,6.68,0,0,0,136.23,28.92Zm-.08,2.37c2.7,0,3.93,2.63,3.93,5.08,0,3-1.68,5.2-4,5.2h0c-2.28,0-3.93-2.15-3.93-5.11C132.13,33.89,133.37,31.29,136.15,31.29Z"></path><path class="cls-2" d="M152.36,29.06l-.18,0a3.12,3.12,0,0,0-.74-.09,4.29,4.29,0,0,0-3.77,2.42l-.09-2.11h-2.69l0,.26c.08,1.19.11,2.52.11,4.32l0,9.81h3V36a7.17,7.17,0,0,1,.08-1.17,3.32,3.32,0,0,1,3.16-3,6.35,6.35,0,0,1,.8,0l.32,0Z"></path><path class="cls-2" d="M159.12,28.89c-4,0-6.79,3.19-6.79,7.77,0,4.4,2.77,7.25,7.07,7.25a11.62,11.62,0,0,0,4.76-.91l.18-.08-.58-2.24-.25.1a9.34,9.34,0,0,1-3.76.67,4.18,4.18,0,0,1-4.5-4.35l9.69,0,0-.19a6.08,6.08,0,0,0,.09-1.26C165.07,32.55,163.51,28.89,159.12,28.89Zm-.2,2.29a3,3,0,0,1,2.2.84,4.25,4.25,0,0,1,1,2.79h-6.85C155.59,33.08,156.67,31.18,158.92,31.18Z"></path><path class="cls-2" d="M54.26,10.21A22.06,22.06,0,0,1,57.14,10a6.44,6.44,0,0,1,4.23,1.16,4.1,4.1,0,0,1,1.48,3.38,4.73,4.73,0,0,1-1.5,3.65,7,7,0,0,1-4.63,1.36,19.31,19.31,0,0,1-2.46-.12Zm1.36,8.33a10.82,10.82,0,0,0,1.36.05c2.88,0,4.45-1.45,4.45-4,0-2.24-1.38-3.62-4.23-3.62a8.39,8.39,0,0,0-1.58.13Z"></path><path class="cls-2" d="M67.68,19.64a3.39,3.39,0,0,1-3.59-3.47,3.49,3.49,0,0,1,3.72-3.59A3.36,3.36,0,0,1,71.42,16a3.5,3.5,0,0,1-3.72,3.6Zm0-.92A2.41,2.41,0,0,0,70,16.08a2.29,2.29,0,1,0-4.54,0,2.37,2.37,0,0,0,2.24,2.6Z"></path><path class="cls-2" d="M73.57,12.74l1,3.41c.2.75.4,1.46.54,2.16h0c.17-.68.41-1.41.66-2.14l1.23-3.43H78.2l1.16,3.37c.28.79.5,1.52.67,2.2h0a17.83,17.83,0,0,1,.57-2.19l1.07-3.38h1.35l-2.42,6.74H79.41l-1.15-3.22A20.49,20.49,0,0,1,77.6,14h0a20.44,20.44,0,0,1-.68,2.25l-1.21,3.2H74.44l-2.26-6.74Z"></path><path class="cls-2" d="M84.43,14.56c0-.71,0-1.27-.06-1.82h1.21l.07,1.1h0a2.85,2.85,0,0,1,2.48-1.26,2.57,2.57,0,0,1,2.65,2.87v4H89.45V15.59c0-1.08-.45-2-1.74-2a2,2,0,0,0-1.83,1.25,1.7,1.7,0,0,0-.09.57v4.07H84.43Z"></path><path class="cls-2" d="M93,9.59h1.37v9.89H93Z"></path><path class="cls-2" d="M99.7,19.64a3.39,3.39,0,0,1-3.59-3.47,3.48,3.48,0,0,1,3.71-3.59A3.36,3.36,0,0,1,103.43,16a3.49,3.49,0,0,1-3.71,3.6Zm0-.92A2.4,2.4,0,0,0,102,16.08a2.29,2.29,0,1,0-4.54,0,2.37,2.37,0,0,0,2.25,2.6Z"></path><path class="cls-2" d="M110.43,17.87a9.85,9.85,0,0,0,.11,1.61h-1.22l-.13-.85h0a2.89,2.89,0,0,1-2.29,1,2.05,2.05,0,0,1-2.3-1.94c0-1.63,1.61-2.52,4.51-2.51v-.14c0-.56-.17-1.57-1.7-1.56a3.92,3.92,0,0,0-2,.5l-.31-.82a5.25,5.25,0,0,1,2.48-.59c2.31,0,2.86,1.41,2.86,2.76ZM109.1,16c-1.48,0-3.17.21-3.17,1.52a1.14,1.14,0,0,0,1.27,1.17A1.89,1.89,0,0,0,109,17.6a1,1,0,0,0,.06-.39Z"></path><path class="cls-2" d="M119.09,9.59v8.15c0,.6,0,1.28.06,1.74h-1.22l-.06-1.17h0a2.82,2.82,0,0,1-2.54,1.33,3.21,3.21,0,0,1-3.22-3.43,3.36,3.36,0,0,1,3.36-3.63,2.58,2.58,0,0,1,2.26,1h0v-4Zm-1.36,5.89a2.46,2.46,0,0,0-.06-.53,2,2,0,0,0-2-1.4,2.31,2.31,0,0,0-2.25,2.59,2.24,2.24,0,0,0,2.22,2.51,2,2,0,0,0,2-1.47,2.15,2.15,0,0,0,.06-.53Z"></path><path class="cls-2" d="M127.69,19.64a3.39,3.39,0,0,1-3.6-3.47,3.49,3.49,0,0,1,3.72-3.59A3.36,3.36,0,0,1,131.42,16a3.5,3.5,0,0,1-3.72,3.6Zm0-.92A2.4,2.4,0,0,0,130,16.08a2.29,2.29,0,1,0-4.54,0,2.37,2.37,0,0,0,2.25,2.6Z"></path><path class="cls-2" d="M133.14,14.56c0-.71,0-1.27-.06-1.82h1.21l.07,1.1h0a2.85,2.85,0,0,1,2.48-1.26,2.57,2.57,0,0,1,2.65,2.87v4h-1.36V15.59c0-1.08-.45-2-1.74-2a1.93,1.93,0,0,0-1.82,1.25,1.48,1.48,0,0,0-.1.57v4.07h-1.36Z"></path><path class="cls-2" d="M146.66,11.12v1.62h2v.93h-2v3.64c0,.83.27,1.31,1,1.31a3.08,3.08,0,0,0,.79-.08l.07.93a4.3,4.3,0,0,1-1.21.17,2,2,0,0,1-1.47-.52,2.42,2.42,0,0,1-.53-1.77V13.67h-1.16v-.93h1.16V11.5Z"></path><path class="cls-2" d="M150.15,9.59h1.36V13.8h0a2.38,2.38,0,0,1,1-.87,2.89,2.89,0,0,1,1.39-.35,2.57,2.57,0,0,1,2.62,2.89v4h-1.37V15.61c0-1.1-.44-2-1.73-2a2,2,0,0,0-1.83,1.23,1.29,1.29,0,0,0-.09.58v4.07h-1.36Z"></path><path class="cls-2" d="M159.52,16.32a2.28,2.28,0,0,0,2.55,2.34,5.75,5.75,0,0,0,2.08-.33l.25.86a6.83,6.83,0,0,1-2.51.43c-2.3,0-3.69-1.38-3.69-3.4a3.43,3.43,0,0,1,3.53-3.65,3,3,0,0,1,3.08,3.18,3,3,0,0,1,0,.58Zm4-.88a1.81,1.81,0,0,0-1.88-2,2.12,2.12,0,0,0-2.09,2Z"></path></g></g></svg> 