<?xml version="1.0" encoding="UTF-8"?> <svg xmlns="http://www.w3.org/2000/svg" xmlns:xlink="http://www.w3.org/1999/xlink" id="Layer_1" data-name="Layer 1" viewBox="0 0 174.54 57.77"><defs><style>.cls-1{fill:#231f20;stroke:#fff;stroke-miterlimit:10;}.cls-2{fill:#fff;}.cls-3{fill:#5bc9f4;}.cls-4{fill:url(#linear-gradient);}.cls-5{fill:url(#linear-gradient-2);}.cls-6{fill:url(#linear-gradient-3);}</style><linearGradient id="linear-gradient" x1="41.32" y1="30.4" x2="9.37" y2="30.4" gradientTransform="matrix(1, 0, 0, -1, 0, 60)" gradientUnits="userSpaceOnUse"><stop offset="0" stop-color="#fee000"></stop><stop offset="0.42" stop-color="#fbbc0e"></stop><stop offset="0.78" stop-color="#faa418"></stop><stop offset="1" stop-color="#f99b1c"></stop></linearGradient><linearGradient id="linear-gradient-2" x1="33.03" y1="27.37" x2="2.98" y2="-2.69" gradientTransform="matrix(1, 0, 0, -1, 0, 60)" gradientUnits="userSpaceOnUse"><stop offset="0" stop-color="#ef4547"></stop><stop offset="1" stop-color="#c6186d"></stop></linearGradient><linearGradient id="linear-gradient-3" x1="2.84" y1="63.61" x2="27.38" y2="39.08" gradientTransform="matrix(1, 0, 0, -1, 0, 60)" gradientUnits="userSpaceOnUse"><stop offset="0" stop-color="#279e6f"></stop><stop offset="0.04" stop-color="#2ba06f"></stop><stop offset="0.46" stop-color="#53b26c"></stop><stop offset="0.8" stop-color="#6bbd6a"></stop><stop offset="1" stop-color="#74c169"></stop></linearGradient></defs><title>google-play</title><g id="Layer_1-2" data-name="Layer 1-2"><rect class="cls-1" x="0.5" y="0.5" width="173.54" height="56.77" rx="7.67"></rect></g><path class="cls-2" d="M90.31,31.92A5.62,5.62,0,1,0,96,37.54a5.54,5.54,0,0,0-5.48-5.62Zm0,9a3.42,3.42,0,1,1,3.16-3.66,1.93,1.93,0,0,1,0,.24A3.29,3.29,0,0,1,90.31,41h0ZM78,31.92a5.62,5.62,0,1,0,5.65,5.62,5.54,5.54,0,0,0-5.47-5.62Zm0,9a3.42,3.42,0,1,1,3.17-3.66v.24A3.29,3.29,0,0,1,78,41h0ZM63.33,33.64V36H69a4.87,4.87,0,0,1-1.29,3,5.83,5.83,0,0,1-4.41,1.74,6.34,6.34,0,1,1,0-12.68,6,6,0,0,1,4.3,1.7l1.64-1.69a8.3,8.3,0,0,0-6-2.4,8.73,8.73,0,0,0-.54,17.46h.54a8,8,0,0,0,6.09-2.47,7.87,7.87,0,0,0,2.06-5.58,7.33,7.33,0,0,0-.12-1.48Zm59.85,1.85a5.24,5.24,0,0,0-4.81-3.57,5.34,5.34,0,0,0-5.32,5.36c0,.09,0,.17,0,.26a5.51,5.51,0,0,0,5.39,5.62h.19a5.55,5.55,0,0,0,4.68-2.47l-1.91-1.27A3.2,3.2,0,0,1,118.64,41a2.84,2.84,0,0,1-2.72-1.71l7.51-3.1Zm-7.67,1.87a3.09,3.09,0,0,1,2.88-3.28h.06a2.16,2.16,0,0,1,2.09,1.2Zm-6.11,5.46h2.47V26.3H109.4Zm-4.05-9.65h-.08a3.9,3.9,0,0,0-3-1.25,5.63,5.63,0,0,0,0,11.24,3.83,3.83,0,0,0,3-1.28h.08v.83c0,2.15-1.14,3.28-3,3.28a3.11,3.11,0,0,1-2.83-2l-2.11.89a5.33,5.33,0,0,0,5,3.29c2.9,0,5.35-1.7,5.35-5.85V32.26h-2.35ZM102.53,41a3.42,3.42,0,0,1,0-6.82,3.19,3.19,0,0,1,3,3.43,3.14,3.14,0,0,1-2.88,3.38h-.12ZM134.75,26.3h-5.91V42.82h2.46V36.56h3.45a5.13,5.13,0,0,0,.41-10.26A2.8,2.8,0,0,0,134.75,26.3Zm.06,8H131.3V28.6h3.51a2.83,2.83,0,1,1,.31,5.66Zm15.25-2.38a4.65,4.65,0,0,0-4.41,2.53l2.19.92a2.66,2.66,0,0,1,4.84.92v.16a5.34,5.34,0,0,0-2.57-.63c-2.36,0-4.75,1.3-4.75,3.71a3.81,3.81,0,0,0,4.1,3.64,3.48,3.48,0,0,0,3.15-1.64h.08v1.27h2.39V36.44c0-2.91-2.17-4.56-5-4.56Zm-.3,9c-.82,0-1.94-.4-1.94-1.39,0-1.29,1.41-1.77,2.61-1.77a4.32,4.32,0,0,1,2.33.55,3,3,0,0,1-3,2.63Zm14-8.69L161,39.41h-.09L158,32.24H155.3l4.39,10-2.46,5.57h2.57l6.78-15.61ZM141.54,42.8H144V26.3h-2.47Z"></path><path class="cls-3" d="M14,13.15A2.66,2.66,0,0,0,13.41,15V44.2A2.68,2.68,0,0,0,14,46.06l.1.1L30.48,29.8v-.39L14.12,13.05Z"></path><path class="cls-4" d="M35.94,35.25,30.48,29.8v-.39L35.94,24l.12.08,6.46,3.66c1.85,1,1.85,2.77,0,3.82l-6.45,3.67Z"></path><path class="cls-5" d="M36.07,35.18,30.48,29.6,14,46a2.16,2.16,0,0,0,2.75.09L36.07,35.18"></path><path class="cls-6" d="M36.07,24l-19.31-11a2.13,2.13,0,0,0-2.74.08L30.45,29.58Z"></path><path class="cls-2" d="M60.82,14.08A2.86,2.86,0,0,0,59,13.35a2.93,2.93,0,0,0-2.88,3v0a2.9,2.9,0,0,0,2.81,3H59a2.26,2.26,0,0,0,2.46-2v-.07h-2.2v-.91h3.4c0,2.74-1.45,4-3.67,4a4,4,0,0,1,0-8,3.86,3.86,0,0,1,2.6,1Z"></path><path class="cls-2" d="M68.66,12.44v1H65.11v2.46h3.1v1h-3.1v2.35h3.67v1H64.06V12.44Z"></path><path class="cls-2" d="M75.52,12.44v1h-2.4v6.79H72.06V13.44H69.69v-1Z"></path><path class="cls-2" d="M80.51,12.44v7.79H79.46V12.44Z"></path><path class="cls-2" d="M87.66,12.44v1H85.3v6.79H84.24V13.44H81.89v-1Z"></path><path class="cls-2" d="M95.07,12.35a4,4,0,1,1-3.94,4v-.06a4,4,0,0,1,3.89-4Zm0,7A2.9,2.9,0,0,0,98,16.4v-.06a2.88,2.88,0,0,0-5.75-.43,3.09,3.09,0,0,0,0,.43,2.89,2.89,0,0,0,2.81,3Z"></path><path class="cls-2" d="M105.22,20.23l-3.54-5.85v5.85h-1.05V12.44h1l3.51,5.81V12.44h1v7.79Z"></path></svg> 