<?xml version="1.0" encoding="utf-8"?>
<!-- Generator: Adobe Illustrator 16.0.0, SVG Export Plug-In . SVG Version: 6.00 Build 0)  -->
<!DOCTYPE svg PUBLIC "-//W3C//DTD SVG 1.1//EN" "http://www.w3.org/Graphics/SVG/1.1/DTD/svg11.dtd">
<svg version="1.1" id="Layer_1" xmlns="http://www.w3.org/2000/svg" xmlns:xlink="http://www.w3.org/1999/xlink" x="0px" y="0px"
	 width="799px" height="1021px" viewBox="0 0 799 1021" enable-background="new 0 0 799 1021" xml:space="preserve">
<linearGradient id="SVGID_1_" gradientUnits="userSpaceOnUse" x1="650.6514" y1="968.6523" x2="650.6513" y2="-53.7324" gradientTransform="matrix(1 0 0 -1 -247.6602 967.04)">
	<stop  offset="0" style="stop-color:#FFFEFE;stop-opacity:0"/>
	<stop  offset="1" style="stop-color:#F5F5F5"/>
</linearGradient>
<rect x="2.856" y="-1.611" fill="url(#SVGID_1_)" width="800.271" height="1022.384"/>
<path fill="#CFCDE2" d="M701.218,924.114l-0.042,16.745l-14.781,9.336l0.043-16.742L701.218,924.114z"/>
<path fill="#E7E6F1" d="M686.438,933.46l-0.041,16.741l-14.879-9.336l0.045-16.744L686.438,933.46z"/>
<path fill="#F4F4FB" d="M701.218,924.113l-14.78,9.339l-14.877-9.339l14.781-9.336L701.218,924.113z"/>
<path fill="#224BE0" d="M699.989,867.396l-0.041,15.598l-13.77,8.692l0.041-15.593L699.989,867.396z"/>
<path fill="#185BCC" d="M686.222,876.094l-0.041,15.593l-13.854-8.692l0.039-15.597L686.222,876.094z"/>
<path fill="#4281EE" d="M699.993,867.404l-13.771,8.695l-13.856-8.695l13.767-8.693L699.993,867.404z"/>
<path fill="#224BE0" d="M755.611,883.908l-0.073,29.044l-25.642,16.193l0.076-29.044L755.611,883.908z"/>
<path fill="#185BCC" d="M729.973,900.103l-0.076,29.045l-25.806-16.194l0.073-29.044L729.973,900.103z"/>
<path fill="#4281EE" d="M755.61,883.906l-25.64,16.193l-25.809-16.193l25.642-16.195L755.61,883.906z"/>
<path fill="#185BCC" d="M715.5,161.93l0.069,26.331l24.389,14.691l-0.068-26.34L715.5,161.93z"/>
<path fill="#224BE0" d="M739.889,176.612l0.068,26.34l24.543-14.691l-0.077-26.331L739.889,176.612z"/>
<path fill="#4281EE" d="M715.5,161.934l24.39,14.682l24.534-14.682l-24.379-14.691L715.5,161.934z"/>
<path fill="#CFCDE2" d="M196.256,256.027l-0.057,20.72l-19.654,11.552l0.057-20.716L196.256,256.027z"/>
<path fill="#E7E6F1" d="M176.603,267.591l-0.056,20.716l-19.784-11.553l0.058-20.72L176.603,267.591z"/>
<path fill="#F4F4FB" d="M196.256,256.025l-19.653,11.556l-19.783-11.556l19.654-11.552L196.256,256.025z"/>
<path fill="#224BE0" d="M194.622,185.845l-0.055,19.298l-18.31,10.758l0.054-19.295L194.622,185.845z"/>
<path fill="#185BCC" d="M176.315,196.606l-0.055,19.295l-18.42-10.758l0.051-19.298L176.315,196.606z"/>
<path fill="#4281EE" d="M194.627,185.854l-18.309,10.761l-18.426-10.761l18.304-10.757L194.627,185.854z"/>
<path fill="#224BE0" d="M142.261,203.801l-0.097,35.938l-34.097,20.039l0.103-35.938L142.261,203.801z"/>
<path fill="#185BCC" d="M108.169,223.841l-0.103,35.938L73.755,239.74l0.097-35.938L108.169,223.841z"/>
<path fill="#4281EE" d="M142.259,203.798l-34.091,20.04l-34.318-20.04l34.095-20.04L142.259,203.798z"/>
<g>
	
		<radialGradient id="SVGID_2_" cx="353.8442" cy="762.9551" r="1.1902" gradientTransform="matrix(36.7 0 0 -18.7136 -12626.9688 14902.1592)" gradientUnits="userSpaceOnUse">
		<stop  offset="0.1919" style="stop-color:#5F5C5D"/>
		<stop  offset="1" style="stop-color:#FFFFFF"/>
	</radialGradient>
	<path fill="url(#SVGID_2_)" d="M359.108,646.804c24.12,0,43.675-9.973,43.675-22.271c0-12.303-19.555-22.273-43.675-22.273
		c-24.122,0-43.674,9.971-43.674,22.273C315.434,636.831,334.986,646.804,359.108,646.804z"/>
	
		<linearGradient id="SVGID_3_" gradientUnits="userSpaceOnUse" x1="566.6436" y1="220.3252" x2="636.0994" y2="220.3252" gradientTransform="matrix(1 0 0 -1 -247.6602 851.04)">
		<stop  offset="0.0101" style="stop-color:#D5D5D5"/>
		<stop  offset="0.0816" style="stop-color:#DFDFDF"/>
		<stop  offset="0.2034" style="stop-color:#FAFAFA"/>
		<stop  offset="0.2222" style="stop-color:#FFFFFF"/>
		<stop  offset="0.2832" style="stop-color:#F5F5F5"/>
		<stop  offset="0.3586" style="stop-color:#E3E3E3"/>
		<stop  offset="0.4209" style="stop-color:#D7D7D7"/>
		<stop  offset="0.5245" style="stop-color:#C8C8C8"/>
		<stop  offset="0.6111" style="stop-color:#C3C3C3"/>
		<stop  offset="1" style="stop-color:#CCCCCC"/>
	</linearGradient>
	<path fill="url(#SVGID_3_)" d="M389.221,614.997h-70.574v10.602c0,0,0,0.191,0,0.285c0,11.348,15.798,20.549,35.286,20.549
		c19.488,0,35.288-9.201,35.288-20.549c0-0.094-0.009-0.188-0.014-0.285h0.014V614.997z"/>
	
		<linearGradient id="SVGID_4_" gradientUnits="userSpaceOnUse" x1="643.0293" y1="280.3296" x2="587.1248" y2="220.3873" gradientTransform="matrix(1 0 0 -1 -247.6602 851.04)">
		<stop  offset="0" style="stop-color:#C8C8C8"/>
		<stop  offset="0.2285" style="stop-color:#CFCFCF"/>
		<stop  offset="0.549" style="stop-color:#E1E1E1"/>
		<stop  offset="0.5808" style="stop-color:#E3E3E3"/>
		<stop  offset="0.9935" style="stop-color:#EBDEF3"/>
		<stop  offset="1" style="stop-color:#EBDEF3"/>
	</linearGradient>
	<path fill="url(#SVGID_4_)" d="M353.933,635.69c19.488,0,35.288-9.201,35.288-20.553c0-11.35-15.8-20.551-35.288-20.551
		c-19.488,0-35.286,9.201-35.286,20.551C318.646,626.489,334.445,635.69,353.933,635.69z"/>
	
		<radialGradient id="SVGID_5_" cx="356.3301" cy="762.6113" r="1.1904" gradientTransform="matrix(21.8675 0 0 -21.8675 -7449.4531 17309.2617)" gradientUnits="userSpaceOnUse">
		<stop  offset="0" style="stop-color:#FFFFFF"/>
		<stop  offset="1" style="stop-color:#000000"/>
	</radialGradient>
	<path fill="url(#SVGID_5_)" d="M353.933,635.604c-19.276,0-34.932-9.004-35.271-20.178c-0.003,0.121-0.015,0.242-0.015,0.363
		c0,11.354,15.798,20.553,35.286,20.553c19.488,0,35.286-9.199,35.286-20.553c0-0.119-0.012-0.24-0.016-0.363
		C388.865,626.601,373.209,635.604,353.933,635.604z"/>
	
		<linearGradient id="SVGID_6_" gradientUnits="userSpaceOnUse" x1="569.0469" y1="232.7637" x2="633.7256" y2="232.7637" gradientTransform="matrix(1 0 0 -1 -247.6602 851.04)">
		<stop  offset="0" style="stop-color:#3A3D4D"/>
		<stop  offset="0.2172" style="stop-color:#0D108A"/>
		<stop  offset="0.4192" style="stop-color:#3A3D4D"/>
		<stop  offset="0.5555" style="stop-color:#373A51"/>
		<stop  offset="0.6984" style="stop-color:#2E315E"/>
		<stop  offset="0.8438" style="stop-color:#1E2173"/>
		<stop  offset="0.9646" style="stop-color:#0D108A"/>
	</linearGradient>
	<path fill="url(#SVGID_6_)" d="M386.795,604.087h-65.72v8.98h0.01c-0.001,0.088-0.01,0.174-0.01,0.262
		c0,10.568,14.711,19.137,32.859,19.137c18.149,0,32.86-8.568,32.86-19.137c0-0.088-0.01-0.174-0.012-0.262h0.012V604.087z"/>
	<path fill="#214CDE" d="M386.795,602.53h-65.72v8.98h0.01c-0.001,0.084-0.01,0.17-0.01,0.264c0,10.564,14.711,19.135,32.859,19.135
		c18.149,0,32.86-8.568,32.86-19.135c0-0.094-0.01-0.18-0.012-0.264h0.012V602.53z"/>
	
		<linearGradient id="SVGID_7_" gradientUnits="userSpaceOnUse" x1="566.6436" y1="239.6357" x2="636.0994" y2="239.6357" gradientTransform="matrix(1 0 0 -1 -247.6602 851.04)">
		<stop  offset="0.0101" style="stop-color:#D5D5D5"/>
		<stop  offset="0.0816" style="stop-color:#DFDFDF"/>
		<stop  offset="0.2034" style="stop-color:#FAFAFA"/>
		<stop  offset="0.2222" style="stop-color:#FFFFFF"/>
		<stop  offset="0.2832" style="stop-color:#F5F5F5"/>
		<stop  offset="0.3586" style="stop-color:#E3E3E3"/>
		<stop  offset="0.4209" style="stop-color:#D7D7D7"/>
		<stop  offset="0.5245" style="stop-color:#C8C8C8"/>
		<stop  offset="0.6111" style="stop-color:#C3C3C3"/>
		<stop  offset="1" style="stop-color:#CCCCCC"/>
	</linearGradient>
	<path fill="url(#SVGID_7_)" d="M389.221,595.687h-70.574v10.604c0,0,0,0.186,0,0.283c0,11.346,15.798,20.549,35.286,20.549
		c19.488,0,35.288-9.203,35.288-20.549c0-0.098-0.009-0.189-0.014-0.283h0.014V595.687z"/>
	
		<linearGradient id="SVGID_8_" gradientUnits="userSpaceOnUse" x1="643.0303" y1="299.6416" x2="587.1244" y2="239.6976" gradientTransform="matrix(1 0 0 -1 -247.6602 851.04)">
		<stop  offset="0" style="stop-color:#C8C8C8"/>
		<stop  offset="0.2285" style="stop-color:#CFCFCF"/>
		<stop  offset="0.549" style="stop-color:#E1E1E1"/>
		<stop  offset="0.5808" style="stop-color:#E3E3E3"/>
		<stop  offset="0.9935" style="stop-color:#EBDEF3"/>
		<stop  offset="1" style="stop-color:#EBDEF3"/>
	</linearGradient>
	<path fill="url(#SVGID_8_)" d="M353.933,616.376c19.488,0,35.288-9.201,35.288-20.549s-15.8-20.547-35.288-20.547
		c-19.488,0-35.286,9.199-35.286,20.547S334.445,616.376,353.933,616.376z"/>
	
		<radialGradient id="SVGID_9_" cx="356.3301" cy="762.7539" r="1.1904" gradientTransform="matrix(21.8675 0 0 -21.8675 -7449.4531 17293.043)" gradientUnits="userSpaceOnUse">
		<stop  offset="0" style="stop-color:#FFFFFF"/>
		<stop  offset="1" style="stop-color:#000000"/>
	</radialGradient>
	<path fill="url(#SVGID_9_)" d="M353.933,616.294c-19.276,0-34.932-9.004-35.271-20.182c-0.003,0.125-0.015,0.246-0.015,0.367
		c0,11.35,15.798,20.551,35.286,20.551c19.488,0,35.286-9.201,35.286-20.551c0-0.121-0.012-0.242-0.016-0.367
		C388.865,607.29,373.209,616.294,353.933,616.294z"/>
	
		<linearGradient id="SVGID_10_" gradientUnits="userSpaceOnUse" x1="569.0469" y1="252.0752" x2="633.7256" y2="252.0752" gradientTransform="matrix(1 0 0 -1 -247.6602 851.04)">
		<stop  offset="0" style="stop-color:#3A3D4D"/>
		<stop  offset="0.2172" style="stop-color:#0D108A"/>
		<stop  offset="0.4192" style="stop-color:#3A3D4D"/>
		<stop  offset="0.5555" style="stop-color:#373A51"/>
		<stop  offset="0.6984" style="stop-color:#2E315E"/>
		<stop  offset="0.8438" style="stop-color:#1E2173"/>
		<stop  offset="0.9646" style="stop-color:#0D108A"/>
	</linearGradient>
	<path fill="url(#SVGID_10_)" d="M386.795,584.776h-65.72v8.979h0.01c-0.001,0.09-0.01,0.172-0.01,0.264
		c0,10.566,14.711,19.135,32.859,19.135c18.149,0,32.86-8.566,32.86-19.135c0-0.092-0.01-0.174-0.012-0.264h0.012V584.776z"/>
	<path fill="#214CDE" d="M386.795,583.218h-65.72v8.98h0.01c-0.001,0.086-0.01,0.172-0.01,0.266
		c0,10.566,14.711,19.131,32.859,19.131c18.149,0,32.86-8.564,32.86-19.131c0-0.094-0.01-0.18-0.012-0.266h0.012V583.218z"/>
	
		<linearGradient id="SVGID_11_" gradientUnits="userSpaceOnUse" x1="566.6436" y1="258.4121" x2="636.0994" y2="258.4121" gradientTransform="matrix(1 0 0 -1 -247.6602 851.04)">
		<stop  offset="0.0101" style="stop-color:#D5D5D5"/>
		<stop  offset="0.0816" style="stop-color:#DFDFDF"/>
		<stop  offset="0.2034" style="stop-color:#FAFAFA"/>
		<stop  offset="0.2222" style="stop-color:#FFFFFF"/>
		<stop  offset="0.2832" style="stop-color:#F5F5F5"/>
		<stop  offset="0.3586" style="stop-color:#E3E3E3"/>
		<stop  offset="0.4209" style="stop-color:#D7D7D7"/>
		<stop  offset="0.5245" style="stop-color:#C8C8C8"/>
		<stop  offset="0.6111" style="stop-color:#C3C3C3"/>
		<stop  offset="1" style="stop-color:#CCCCCC"/>
	</linearGradient>
	<path fill="url(#SVGID_11_)" d="M389.221,576.909h-70.574v10.605c0,0,0,0.188,0,0.281c0,11.354,15.798,20.551,35.286,20.551
		c19.488,0,35.288-9.197,35.288-20.551c0-0.094-0.009-0.188-0.014-0.281h0.014V576.909z"/>
	
		<linearGradient id="SVGID_12_" gradientUnits="userSpaceOnUse" x1="643.0313" y1="318.4185" x2="587.1237" y2="258.472" gradientTransform="matrix(1 0 0 -1 -247.6602 851.04)">
		<stop  offset="0" style="stop-color:#C8C8C8"/>
		<stop  offset="0.2285" style="stop-color:#CFCFCF"/>
		<stop  offset="0.549" style="stop-color:#E1E1E1"/>
		<stop  offset="0.5808" style="stop-color:#E3E3E3"/>
		<stop  offset="0.9935" style="stop-color:#EBDEF3"/>
		<stop  offset="1" style="stop-color:#EBDEF3"/>
	</linearGradient>
	<path fill="url(#SVGID_12_)" d="M353.933,597.601c19.488,0,35.288-9.197,35.288-20.547c0-11.348-15.8-20.548-35.288-20.548
		c-19.488,0-35.286,9.2-35.286,20.548C318.646,588.403,334.445,597.601,353.933,597.601z"/>
	
		<radialGradient id="SVGID_13_" cx="356.3301" cy="762.8906" r="1.1904" gradientTransform="matrix(21.8675 0 0 -21.8675 -7449.4531 17277.2617)" gradientUnits="userSpaceOnUse">
		<stop  offset="0" style="stop-color:#FFFFFF"/>
		<stop  offset="1" style="stop-color:#000000"/>
	</radialGradient>
	<path fill="url(#SVGID_13_)" d="M353.933,597.522c-19.276,0-34.932-9.002-35.271-20.182c-0.003,0.119-0.015,0.242-0.015,0.367
		c0,11.348,15.798,20.549,35.286,20.549c19.488,0,35.286-9.201,35.286-20.549c0-0.125-0.012-0.248-0.016-0.367
		C388.865,588.521,373.209,597.522,353.933,597.522z"/>
	
		<linearGradient id="SVGID_14_" gradientUnits="userSpaceOnUse" x1="569.0469" y1="270.8516" x2="633.7256" y2="270.8516" gradientTransform="matrix(1 0 0 -1 -247.6602 851.04)">
		<stop  offset="0" style="stop-color:#3A3D4D"/>
		<stop  offset="0.2172" style="stop-color:#0D108A"/>
		<stop  offset="0.4192" style="stop-color:#3A3D4D"/>
		<stop  offset="0.5555" style="stop-color:#373A51"/>
		<stop  offset="0.6984" style="stop-color:#2E315E"/>
		<stop  offset="0.8438" style="stop-color:#1E2173"/>
		<stop  offset="0.9646" style="stop-color:#0D108A"/>
	</linearGradient>
	<path fill="url(#SVGID_14_)" d="M386.795,565.999h-65.72v8.982h0.01c-0.001,0.088-0.01,0.172-0.01,0.262
		c0,10.568,14.711,19.135,32.859,19.135c18.149,0,32.86-8.564,32.86-19.135c0-0.09-0.01-0.174-0.012-0.262h0.012V565.999z"/>
	<path fill="#214CDE" d="M386.795,564.442h-65.72v8.982h0.01c-0.001,0.09-0.01,0.176-0.01,0.264
		c0,10.564,14.711,19.133,32.859,19.133c18.149,0,32.86-8.568,32.86-19.133c0-0.088-0.01-0.174-0.012-0.264h0.012V564.442z"/>
	
		<linearGradient id="SVGID_15_" gradientUnits="userSpaceOnUse" x1="566.6436" y1="277.3975" x2="636.0994" y2="277.3975" gradientTransform="matrix(1 0 0 -1 -247.6602 851.04)">
		<stop  offset="0.0101" style="stop-color:#D5D5D5"/>
		<stop  offset="0.0816" style="stop-color:#DFDFDF"/>
		<stop  offset="0.2034" style="stop-color:#FAFAFA"/>
		<stop  offset="0.2222" style="stop-color:#FFFFFF"/>
		<stop  offset="0.2832" style="stop-color:#F5F5F5"/>
		<stop  offset="0.3586" style="stop-color:#E3E3E3"/>
		<stop  offset="0.4209" style="stop-color:#D7D7D7"/>
		<stop  offset="0.5245" style="stop-color:#C8C8C8"/>
		<stop  offset="0.6111" style="stop-color:#C3C3C3"/>
		<stop  offset="1" style="stop-color:#CCCCCC"/>
	</linearGradient>
	<path fill="url(#SVGID_15_)" d="M389.221,557.925h-70.574v10.605c0,0,0,0.188,0,0.285c0,11.348,15.798,20.545,35.286,20.545
		c19.488,0,35.288-9.197,35.288-20.545c0-0.098-0.009-0.189-0.014-0.285h0.014V557.925z"/>
	
		<linearGradient id="SVGID_16_" gradientUnits="userSpaceOnUse" x1="643.0264" y1="337.3975" x2="587.1253" y2="277.4569" gradientTransform="matrix(1 0 0 -1 -247.6602 851.04)">
		<stop  offset="0" style="stop-color:#C8C8C8"/>
		<stop  offset="0.2285" style="stop-color:#CFCFCF"/>
		<stop  offset="0.549" style="stop-color:#E1E1E1"/>
		<stop  offset="0.5808" style="stop-color:#E3E3E3"/>
		<stop  offset="0.9935" style="stop-color:#EBDEF3"/>
		<stop  offset="1" style="stop-color:#EBDEF3"/>
	</linearGradient>
	<path fill="url(#SVGID_16_)" d="M353.933,578.616c19.488,0,35.288-9.199,35.288-20.547c0-11.349-15.8-20.546-35.288-20.546
		c-19.488,0-35.286,9.197-35.286,20.546C318.646,569.417,334.445,578.616,353.933,578.616z"/>
	
		<radialGradient id="SVGID_17_" cx="356.3301" cy="763.0293" r="1.1904" gradientTransform="matrix(21.8675 0 0 -21.8675 -7449.4531 17261.3086)" gradientUnits="userSpaceOnUse">
		<stop  offset="0" style="stop-color:#FFFFFF"/>
		<stop  offset="1" style="stop-color:#000000"/>
	</radialGradient>
	<path fill="url(#SVGID_17_)" d="M353.933,578.54c-19.276,0-34.932-9.006-35.271-20.184c-0.003,0.121-0.015,0.244-0.015,0.367
		c0,11.348,15.798,20.549,35.286,20.549c19.488,0,35.286-9.201,35.286-20.549c0-0.123-0.012-0.246-0.016-0.367
		C388.865,569.534,373.209,578.54,353.933,578.54z"/>
	
		<linearGradient id="SVGID_18_" gradientUnits="userSpaceOnUse" x1="569.0469" y1="289.8325" x2="633.7256" y2="289.8325" gradientTransform="matrix(1 0 0 -1 -247.6602 851.04)">
		<stop  offset="0" style="stop-color:#3A3D4D"/>
		<stop  offset="0.2172" style="stop-color:#0D108A"/>
		<stop  offset="0.4192" style="stop-color:#3A3D4D"/>
		<stop  offset="0.5555" style="stop-color:#373A51"/>
		<stop  offset="0.6984" style="stop-color:#2E315E"/>
		<stop  offset="0.8438" style="stop-color:#1E2173"/>
		<stop  offset="0.9646" style="stop-color:#0D108A"/>
	</linearGradient>
	<path fill="url(#SVGID_18_)" d="M386.795,547.018h-65.72V556h0.01c-0.001,0.088-0.01,0.172-0.01,0.26
		c0,10.571,14.711,19.138,32.859,19.138c18.149,0,32.86-8.566,32.86-19.138c0-0.088-0.01-0.172-0.012-0.26h0.012V547.018z"/>
	<path fill="#214CDE" d="M386.795,545.463h-65.72v8.979h0.01c-0.001,0.088-0.01,0.174-0.01,0.264
		c0,10.571,14.711,19.136,32.859,19.136c18.149,0,32.86-8.564,32.86-19.136c0-0.09-0.01-0.176-0.012-0.264h0.012V545.463z"/>
	
		<linearGradient id="SVGID_19_" gradientUnits="userSpaceOnUse" x1="566.6436" y1="296.3784" x2="636.0994" y2="296.3784" gradientTransform="matrix(1 0 0 -1 -247.6602 851.04)">
		<stop  offset="0.0101" style="stop-color:#D5D5D5"/>
		<stop  offset="0.0816" style="stop-color:#DFDFDF"/>
		<stop  offset="0.2034" style="stop-color:#FAFAFA"/>
		<stop  offset="0.2222" style="stop-color:#FFFFFF"/>
		<stop  offset="0.2832" style="stop-color:#F5F5F5"/>
		<stop  offset="0.3586" style="stop-color:#E3E3E3"/>
		<stop  offset="0.4209" style="stop-color:#D7D7D7"/>
		<stop  offset="0.5245" style="stop-color:#C8C8C8"/>
		<stop  offset="0.6111" style="stop-color:#C3C3C3"/>
		<stop  offset="1" style="stop-color:#CCCCCC"/>
	</linearGradient>
	<path fill="url(#SVGID_19_)" d="M389.221,538.943h-70.574v10.605c0,0,0,0.188,0,0.283c0,11.349,15.798,20.548,35.286,20.548
		c19.488,0,35.288-9.199,35.288-20.548c0-0.096-0.012-0.188-0.014-0.283h0.014V538.943z"/>
	
		<linearGradient id="SVGID_20_" gradientUnits="userSpaceOnUse" x1="643.0303" y1="356.3818" x2="587.1243" y2="296.4381" gradientTransform="matrix(1 0 0 -1 -247.6602 851.04)">
		<stop  offset="0" style="stop-color:#C8C8C8"/>
		<stop  offset="0.2285" style="stop-color:#CFCFCF"/>
		<stop  offset="0.549" style="stop-color:#E1E1E1"/>
		<stop  offset="0.5808" style="stop-color:#E3E3E3"/>
		<stop  offset="0.9935" style="stop-color:#EBDEF3"/>
		<stop  offset="1" style="stop-color:#EBDEF3"/>
	</linearGradient>
	<path fill="url(#SVGID_20_)" d="M353.933,559.636c19.488,0,35.288-9.2,35.288-20.55c0-11.347-15.8-20.55-35.288-20.55
		c-19.488,0-35.286,9.203-35.286,20.55C318.646,550.436,334.445,559.636,353.933,559.636z"/>
	
		<radialGradient id="SVGID_21_" cx="356.3301" cy="763.168" r="1.1904" gradientTransform="matrix(21.8675 0 0 -21.8675 -7449.4531 17245.3555)" gradientUnits="userSpaceOnUse">
		<stop  offset="0" style="stop-color:#FFFFFF"/>
		<stop  offset="1" style="stop-color:#000000"/>
	</radialGradient>
	<path fill="url(#SVGID_21_)" d="M353.933,559.556c-19.276,0-34.932-9.003-35.271-20.183c-0.003,0.121-0.015,0.244-0.015,0.367
		c0,11.348,15.798,20.546,35.286,20.546c19.488,0,35.286-9.198,35.286-20.546c0-0.123-0.012-0.246-0.016-0.367
		C388.865,550.553,373.209,559.556,353.933,559.556z"/>
	
		<radialGradient id="SVGID_22_" cx="359.3774" cy="767.5957" r="1.1902" gradientTransform="matrix(15.0003 0 0 -7.6487 -5034.1597 6408.7617)" gradientUnits="userSpaceOnUse">
		<stop  offset="0.1919" style="stop-color:#5F5C5D"/>
		<stop  offset="1" style="stop-color:#FFFFFF"/>
	</radialGradient>
	<path fill="url(#SVGID_22_)" d="M356.616,546.725c9.86,0,17.851-4.074,17.851-9.102c0-5.026-7.99-9.103-17.851-9.103
		c-9.859,0-17.85,4.076-17.85,9.103C338.766,542.65,346.757,546.725,356.616,546.725z"/>
	
		<linearGradient id="SVGID_23_" gradientUnits="userSpaceOnUse" x1="587.6064" y1="311.8491" x2="615.3998" y2="311.8491" gradientTransform="matrix(1 0 0 -1 -247.6602 851.04)">
		<stop  offset="0.0101" style="stop-color:#D5D5D5"/>
		<stop  offset="0.0816" style="stop-color:#DFDFDF"/>
		<stop  offset="0.2034" style="stop-color:#FAFAFA"/>
		<stop  offset="0.2222" style="stop-color:#FFFFFF"/>
		<stop  offset="0.2832" style="stop-color:#F5F5F5"/>
		<stop  offset="0.3586" style="stop-color:#E3E3E3"/>
		<stop  offset="0.4209" style="stop-color:#D7D7D7"/>
		<stop  offset="0.5245" style="stop-color:#C8C8C8"/>
		<stop  offset="0.6111" style="stop-color:#C3C3C3"/>
		<stop  offset="1" style="stop-color:#CCCCCC"/>
	</linearGradient>
	<path fill="url(#SVGID_23_)" d="M368.053,532.278h-28.241v5.491c0,0,0,0.074,0,0.109c0,4.543,6.32,8.225,14.121,8.225
		c7.798,0,14.12-3.682,14.12-8.225c0-0.035-0.004-0.072-0.004-0.109h0.004V532.278z"/>
	
		<linearGradient id="SVGID_24_" gradientUnits="userSpaceOnUse" x1="618.1748" y1="336.4824" x2="595.804" y2="312.4955" gradientTransform="matrix(1 0 0 -1 -247.6602 851.04)">
		<stop  offset="0" style="stop-color:#C8C8C8"/>
		<stop  offset="0.2285" style="stop-color:#CFCFCF"/>
		<stop  offset="0.549" style="stop-color:#E1E1E1"/>
		<stop  offset="0.5808" style="stop-color:#E3E3E3"/>
		<stop  offset="0.9935" style="stop-color:#EBDEF3"/>
		<stop  offset="1" style="stop-color:#EBDEF3"/>
	</linearGradient>
	<path fill="url(#SVGID_24_)" d="M353.933,540.559c7.798,0,14.12-3.68,14.12-8.222c0-4.539-6.322-8.221-14.12-8.221
		c-7.798,0-14.121,3.682-14.121,8.221C339.812,536.879,346.134,540.559,353.933,540.559z"/>
	<path fill="#D6D6D6" d="M353.933,537.543c4.907,0,8.885-2.313,8.885-5.171c0-2.857-3.978-5.172-8.885-5.172
		s-8.884,2.314-8.884,5.172C345.049,535.23,349.026,537.543,353.933,537.543z"/>
	
		<linearGradient id="SVGID_25_" gradientUnits="userSpaceOnUse" x1="611.9131" y1="320.0303" x2="590.0958" y2="320.0303" gradientTransform="matrix(1 0 0 -1 -247.6602 851.04)">
		<stop  offset="0.0101" style="stop-color:#D5D5D5"/>
		<stop  offset="0.0816" style="stop-color:#DFDFDF"/>
		<stop  offset="0.2034" style="stop-color:#FAFAFA"/>
		<stop  offset="0.2222" style="stop-color:#FFFFFF"/>
		<stop  offset="0.2832" style="stop-color:#F5F5F5"/>
		<stop  offset="0.3586" style="stop-color:#E3E3E3"/>
		<stop  offset="0.4209" style="stop-color:#D7D7D7"/>
		<stop  offset="0.5245" style="stop-color:#C8C8C8"/>
		<stop  offset="0.6111" style="stop-color:#C3C3C3"/>
		<stop  offset="1" style="stop-color:#CCCCCC"/>
	</linearGradient>
	<path fill="url(#SVGID_25_)" d="M353.933,532.101c3.383,0,6.325,1.102,7.823,2.721c0.677-0.727,1.062-1.563,1.062-2.449
		c0-2.857-3.978-5.172-8.885-5.172s-8.884,2.314-8.884,5.172c0,0.887,0.383,1.723,1.059,2.449
		C347.608,533.204,350.55,532.101,353.933,532.101z"/>
	
		<radialGradient id="SVGID_26_" cx="365.9443" cy="766.7344" r="1.1895" gradientTransform="matrix(8.7507 0 0 -8.7507 -2852.8518 7248.8613)" gradientUnits="userSpaceOnUse">
		<stop  offset="0" style="stop-color:#FFFFFF"/>
		<stop  offset="1" style="stop-color:#000000"/>
	</radialGradient>
	<path fill="url(#SVGID_26_)" d="M353.933,540.525c-7.715,0-13.979-3.6-14.115-8.075c-0.001,0.049-0.006,0.098-0.006,0.15
		c0,4.54,6.32,8.222,14.121,8.222c7.798,0,14.12-3.682,14.12-8.222c0-0.053-0.004-0.102-0.006-0.15
		C367.91,536.926,361.645,540.525,353.933,540.525z"/>
	
		<linearGradient id="SVGID_27_" gradientUnits="userSpaceOnUse" x1="832.625" y1="554.7822" x2="867.2355" y2="565.1457" gradientTransform="matrix(1 0 0 -1 -247.6602 851.04)">
		<stop  offset="0" style="stop-color:#7A94C8"/>
		<stop  offset="0.1505" style="stop-color:#8198CB"/>
		<stop  offset="0.3619" style="stop-color:#93A5D5"/>
		<stop  offset="0.5808" style="stop-color:#ADB6E3"/>
		<stop  offset="0.7132" style="stop-color:#BDC0E7"/>
		<stop  offset="0.97" style="stop-color:#E6DBF2"/>
		<stop  offset="1" style="stop-color:#EBDEF3"/>
	</linearGradient>
	<path fill="url(#SVGID_27_)" d="M582.344,286.494v24.252l10.506-6.302v-24.252L582.344,286.494z"/>
	
		<linearGradient id="SVGID_28_" gradientUnits="userSpaceOnUse" x1="771.3682" y1="550.1211" x2="863.1926" y2="570.7048" gradientTransform="matrix(1 0 0 -1 -247.6602 851.04)">
		<stop  offset="0" style="stop-color:#7A94C8"/>
		<stop  offset="0.1505" style="stop-color:#8198CB"/>
		<stop  offset="0.3619" style="stop-color:#93A5D5"/>
		<stop  offset="0.5808" style="stop-color:#ADB6E3"/>
		<stop  offset="0.7132" style="stop-color:#BDC0E7"/>
		<stop  offset="0.97" style="stop-color:#E6DBF2"/>
		<stop  offset="1" style="stop-color:#EBDEF3"/>
	</linearGradient>
	<path fill="url(#SVGID_28_)" d="M582.367,286.494v24.252l-27.5-15.558v-24.231L582.367,286.494z"/>
	<path fill="#20254D" d="M559.947,293.944v-16.628l17.34,9.618v16.642L559.947,293.944z"/>
	
		<linearGradient id="SVGID_29_" gradientUnits="userSpaceOnUse" x1="833.8447" y1="598.9551" x2="818.8503" y2="570.3799" gradientTransform="matrix(1 0 0 -1 -247.6602 851.04)">
		<stop  offset="0" style="stop-color:#7A94C8"/>
		<stop  offset="0.1505" style="stop-color:#8198CB"/>
		<stop  offset="0.3619" style="stop-color:#93A5D5"/>
		<stop  offset="0.5808" style="stop-color:#ADB6E3"/>
		<stop  offset="0.7132" style="stop-color:#BDC0E7"/>
		<stop  offset="0.97" style="stop-color:#E6DBF2"/>
		<stop  offset="1" style="stop-color:#EBDEF3"/>
	</linearGradient>
	<path fill="url(#SVGID_29_)" d="M554.867,270.958l27.5,15.536l10.482-6.301l-27.539-15.557L554.867,270.958z"/>
	
		<linearGradient id="SVGID_30_" gradientUnits="userSpaceOnUse" x1="819.0771" y1="555.9639" x2="812.133" y2="567.9956" gradientTransform="matrix(1 0 0 -1 -247.6602 851.04)">
		<stop  offset="0.2879" style="stop-color:#838091"/>
		<stop  offset="0.4656" style="stop-color:#A5A2B1"/>
		<stop  offset="0.5859" style="stop-color:#B7B4C2"/>
		<stop  offset="0.8081" style="stop-color:#9B98A7"/>
	</linearGradient>
	<path fill="url(#SVGID_30_)" d="M572.67,292.24c0,1.419-0.493,2.427-1.291,2.916c0,0-1.467,0.848-1.484,0.866
		c-0.832,0.466-0.301-0.593-1.567-1.321c-2.54-1.464-4.595-5.02-4.595-7.937c0-1.443-1.34-1.454-0.519-1.937
		c0.022-0.012,1.618-0.872,1.641-0.883c0.832-0.449,1.962-0.367,3.213,0.354C570.609,285.768,572.67,289.323,572.67,292.24z"/>
	
		<linearGradient id="SVGID_31_" gradientUnits="userSpaceOnUse" x1="812.0146" y1="556.9199" x2="818.1521" y2="567.4987" gradientTransform="matrix(1 0 0 -1 -247.6602 851.04)">
		<stop  offset="0.0354" style="stop-color:#9D9EB3"/>
		<stop  offset="0.5808" style="stop-color:#D4D1D8"/>
		<stop  offset="1" style="stop-color:#EEEBF2"/>
	</linearGradient>
	<path fill="url(#SVGID_31_)" d="M571.068,293.14c0,2.91-2.066,4.086-4.605,2.624c-2.543-1.471-4.598-5.022-4.598-7.938
		c0-2.917,2.058-4.092,4.598-2.624C569.004,286.665,571.068,290.22,571.068,293.14z"/>
	
		<linearGradient id="SVGID_32_" gradientUnits="userSpaceOnUse" x1="816.0625" y1="555.3662" x2="810.1046" y2="565.6884" gradientTransform="matrix(1 0 0 -1 -247.6602 851.04)">
		<stop  offset="0.1667" style="stop-color:#838091"/>
		<stop  offset="0.4167" style="stop-color:#A5A2B1"/>
		<stop  offset="0.5859" style="stop-color:#B7B4C2"/>
		<stop  offset="0.9091" style="stop-color:#9B98A7"/>
	</linearGradient>
	<path fill="url(#SVGID_32_)" d="M569.947,292.933c0,1.22-0.42,2.089-1.109,2.507c-0.025,0.01-2.207,1.314-2.223,1.326
		c-0.717,0.4-0.264-0.507-1.345-1.131c-2.18-1.259-3.951-4.311-3.951-6.809c0-1.239-1.142-1.246-0.441-1.659
		c0.017-0.012,2.338-1.338,2.361-1.349c0.712-0.39,1.683-0.316,2.757,0.304C568.179,287.379,569.947,290.433,569.947,292.933z"/>
	
		<linearGradient id="SVGID_33_" gradientUnits="userSpaceOnUse" x1="809.5176" y1="555.9102" x2="814.7824" y2="564.9847" gradientTransform="matrix(1 0 0 -1 -247.6602 851.04)">
		<stop  offset="0.0354" style="stop-color:#9D9EB3"/>
		<stop  offset="0.5808" style="stop-color:#D4D1D8"/>
		<stop  offset="1" style="stop-color:#EEEBF2"/>
	</linearGradient>
	<path fill="url(#SVGID_33_)" d="M567.616,294.292c0,2.502-1.765,3.51-3.948,2.252c-2.184-1.257-3.95-4.31-3.95-6.809
		c0-2.508,1.767-3.511,3.95-2.251C565.852,288.742,567.616,291.79,567.616,294.292z"/>
	<path fill="#E6E7E8" d="M566.684,285.091c-1.22-0.703-2.321-0.797-3.146-0.387c0.768-0.212,1.715-0.058,2.75,0.54
		c2.545,1.467,4.604,5.022,4.604,7.939c0,1.513-0.56,2.561-1.455,3.006c1.123-0.309,1.854-1.432,1.854-3.161
		C571.289,290.111,569.227,286.555,566.684,285.091z"/>
	
		<radialGradient id="SVGID_34_" cx="398.2998" cy="785.9541" r="1.1908" gradientTransform="matrix(3.6037 0 0 -3.6037 -869.6985 3122.7993)" gradientUnits="userSpaceOnUse">
		<stop  offset="0" style="stop-color:#FFFFFF"/>
		<stop  offset="1" style="stop-color:#000000"/>
	</radialGradient>
	<path fill="url(#SVGID_34_)" d="M563.846,287.369c-1.048-0.604-2.008-0.687-2.717-0.331c0.662-0.184,1.484-0.046,2.373,0.465
		c2.196,1.269,3.971,4.33,3.971,6.85c0,1.309-0.484,2.213-1.251,2.597c0.97-0.273,1.597-1.234,1.597-2.73
		C567.818,291.703,566.038,288.642,563.846,287.369z"/>
	<path fill="#2AF6FF" d="M565.766,293.635c0,1.448-1.02,2.031-2.279,1.299c-1.258-0.728-2.281-2.485-2.281-3.929
		c0-1.449,1.02-2.031,2.281-1.304C564.746,290.429,565.766,292.193,565.766,293.635z"/>
	
		<linearGradient id="SVGID_35_" gradientUnits="userSpaceOnUse" x1="888.2656" y1="636.1035" x2="716.6685" y2="536.2288" gradientTransform="matrix(1 0 0 -1 -247.6602 851.04)">
		<stop  offset="0" style="stop-color:#88B3D4"/>
		<stop  offset="0.1768" style="stop-color:#82AED4"/>
		<stop  offset="0.402" style="stop-color:#73A0D3"/>
		<stop  offset="0.6525" style="stop-color:#5989D1"/>
		<stop  offset="0.6667" style="stop-color:#5787D1"/>
		<stop  offset="0.9394" style="stop-color:#A0BECC"/>
		<stop  offset="0.9609" style="stop-color:#9EBBCD"/>
		<stop  offset="0.9751" style="stop-color:#99B3D0"/>
		<stop  offset="0.9848" style="stop-color:#92A7D5"/>
	</linearGradient>
	<path fill="url(#SVGID_35_)" d="M625.008,261.858c-3.078-1.775-5.991-2.694-8.631-2.875c0-0.18,0.023-0.349,0.023-0.536
		c0-26.116-18.453-57.947-41.217-71.093c-18.309-10.566-33.805-5.808-39.182,10.033c-1.4-1.07-2.833-2.064-4.305-2.91
		c-15.008-8.666-27.175-1.73-27.175,15.496c0,17.22,12.167,38.209,27.175,46.874c7.506,4.331,84.424,48.74,93.306,53.866
		c11.76,6.791,21.287,1.355,21.287-12.134C646.29,285.09,636.767,268.647,625.008,261.858z"/>
	<path fill="#214CDE" d="M634.563,305.66c-1.519,0-3.499-0.659-5.569-1.852l-93.303-53.874c-12.57-7.254-23.186-25.556-23.186-39.96
		c0-4.203,0.908-11.248,7.001-11.248c2.35,0,5.19,0.914,8.21,2.662c1.024,0.589,2.158,1.361,3.467,2.352
		c4.338,3.3,10.628,1.376,12.377-3.788c2.313-6.815,6.742-10.271,13.152-10.271c4.281,0,9.288,1.587,14.482,4.587
		c20.134,11.625,37.155,40.909,37.232,64.022l-0.023,0.698c0,4.194,3.251,7.669,7.431,7.958h0.008
		c1.497,0.101,3.288,0.733,5.174,1.826c9.218,5.32,17.304,19.246,17.304,29.806c0,2.7-0.547,4.929-1.501,6.117
		C636.409,305.199,635.861,305.66,634.563,305.66z"/>
	
		<linearGradient id="SVGID_36_" gradientUnits="userSpaceOnUse" x1="798.4961" y1="656.8926" x2="783.4339" y2="648.1254" gradientTransform="matrix(1 0 0 -1 -247.6602 851.04)">
		<stop  offset="0" style="stop-color:#20254D"/>
		<stop  offset="0.5" style="stop-color:#0D108A"/>
		<stop  offset="1" style="stop-color:#20254D"/>
	</linearGradient>
	<path fill="url(#SVGID_36_)" d="M544.889,198.289v-0.004c0.621-1.832,1.408-3.405,2.334-4.749c-1.529,1.63-2.77,3.754-3.666,6.412
		c-0.197,0.582-0.467,1.105-0.77,1.6C543.708,200.687,544.447,199.593,544.889,198.289z"/>
	
		<linearGradient id="SVGID_37_" gradientUnits="userSpaceOnUse" x1="867.8613" y1="624.1289" x2="740.874" y2="550.2179" gradientTransform="matrix(1 0 0 -1 -247.6602 851.04)">
		<stop  offset="0" style="stop-color:#20254D"/>
		<stop  offset="0.5" style="stop-color:#0D108A"/>
		<stop  offset="1" style="stop-color:#20254D"/>
	</linearGradient>
	<path fill="url(#SVGID_37_)" d="M635.89,303.994c-1.516,0-3.493-0.654-5.565-1.853l-93.304-53.867
		c-12.57-7.261-23.185-25.563-23.185-39.967c0-2.396,0.297-5.718,1.68-8.13c-2.529,2.287-3.012,6.769-3.012,9.794
		c0,14.404,10.615,32.71,23.185,39.962l93.304,53.873c2.072,1.192,4.051,1.851,5.569,1.851c1.298,0,1.846-0.458,2.254-0.965
		c0.23-0.289,0.437-0.644,0.616-1.042C637.068,303.854,636.6,303.994,635.89,303.994z"/>
	
		<linearGradient id="SVGID_38_" gradientUnits="userSpaceOnUse" x1="784.8711" y1="718.7051" x2="867.224" y2="602.2744" gradientTransform="matrix(1 0 0 -1 -247.6602 851.04)">
		<stop  offset="0" style="stop-color:#7A94C8"/>
		<stop  offset="0.1509" style="stop-color:#7E96CA"/>
		<stop  offset="0.2919" style="stop-color:#899ED0"/>
		<stop  offset="0.4285" style="stop-color:#9CABDA"/>
		<stop  offset="0.5202" style="stop-color:#ADB6E3"/>
		<stop  offset="0.64" style="stop-color:#BDC4E8"/>
		<stop  offset="0.8722" style="stop-color:#E6E9F6"/>
		<stop  offset="1" style="stop-color:#FFFFFF"/>
	</linearGradient>
	<path fill="url(#SVGID_38_)" d="M687.858,274.479c0-13.494-9.525-29.934-21.286-36.723c-3.078-1.774-5.988-2.696-8.629-2.875
		c0-0.181,0.022-0.349,0.022-0.533c0-26.122-18.452-57.953-41.217-71.095c-12.784-7.381-23.911-6.39-31.744-1.157l-13.149,7.505
		c-7.426-3.854-14.071-3.827-18.748-0.594l-39.384,22.889c4.786-2.085,11.08-1.409,17.977,2.573c1.469,0.85,2.898,1.839,4.302,2.91
		c5.377-15.839,20.873-20.6,39.182-10.033c22.764,13.146,41.217,44.977,41.217,71.095c0,0.186-0.023,0.354-0.023,0.537
		c2.64,0.178,5.553,1.097,8.631,2.873c11.759,6.79,21.284,23.229,21.284,36.718c0,5.709-1.715,9.968-4.567,12.475l39.235-22.501
		l-0.024-0.041C685.193,286.501,687.858,281.619,687.858,274.479z"/>
	<path fill="#AFB8E3" d="M531.021,195.568c1.465,0.849,2.896,1.845,4.305,2.916c0.309-0.926,0.664-1.804,1.043-2.647
		c-1.083-0.786-2.175-1.542-3.295-2.187c-9.475-5.469-17.805-4.708-22.668,0.915C515.385,190.783,522.766,190.805,531.021,195.568z"
		/>
	
		<radialGradient id="SVGID_39_" cx="353.5835" cy="763.0303" r="1.1906" gradientTransform="matrix(49.6136 0 0 -49.6136 -16953.4785 38079.543)" gradientUnits="userSpaceOnUse">
		<stop  offset="0" style="stop-color:#F4F4FA"/>
		<stop  offset="1" style="stop-color:#224BE0"/>
	</radialGradient>
	<path fill="url(#SVGID_39_)" d="M626.378,261.038c-3.077-1.776-5.989-2.696-8.63-2.874c0-0.183,0.023-0.35,0.023-0.536
		c0-26.119-18.453-57.949-41.218-71.095c-13.988-8.069-26.312-7.178-33.763,0.746c7.555-6.094,18.942-6.196,31.705,1.174
		c22.77,13.14,41.221,44.971,41.221,71.095c0,0.182-0.023,0.349-0.028,0.534c2.641,0.178,5.558,1.098,8.63,2.872
		c11.759,6.792,21.287,23.231,21.287,36.725c0,4.836-1.236,8.613-3.351,11.186c3.351-2.38,5.408-6.867,5.408-13.106
		C647.665,284.268,638.127,267.827,626.378,261.038z"/>
	
		<linearGradient id="SVGID_40_" gradientUnits="userSpaceOnUse" x1="749.5117" y1="478.4722" x2="752.919" y2="525.6578" gradientTransform="matrix(1 0 0 -1 -247.6602 851.04)">
		<stop  offset="0.0303" style="stop-color:#1250C9"/>
		<stop  offset="0.2653" style="stop-color:#1774D5"/>
		<stop  offset="0.7844" style="stop-color:#24CFF2"/>
		<stop  offset="1" style="stop-color:#2AF6FF"/>
	</linearGradient>
	<path fill="url(#SVGID_40_)" d="M497.213,372.446l-2.077-0.607v-43.61c0-0.438,0.272-0.824,0.685-0.977l18.951-6.268l0.596,1.785
		l-18.154,6.188V372.446z"/>
	<path fill="#FFFFFF" d="M579.828,235.208l-0.304-0.168v-8.384c0-5.369-3.891-11.912-8.697-14.616l-6.015-3.373
		c-4.807-2.7-8.704-0.534-8.704,4.838v8.38l-0.298-0.168c-2.243-1.258-4.059-0.257-4.059,2.248v19.826
		c0,2.498,1.815,5.543,4.059,6.8l24.016,13.496c2.243,1.257,4.059,0.257,4.059-2.247v-19.827
		C583.885,239.519,582.069,236.47,579.828,235.208z M569.319,245.099v6.499l-3.004-1.683v-6.507
		c-1.193-1.302-2.022-3.125-2.022-4.695c0-2.178,1.582-3.053,3.527-1.96c1.946,1.098,3.528,3.749,3.528,5.925
		C571.347,244.25,570.515,245.144,569.319,245.099z M574.478,232.204l-13.313-7.488v-6.705c0-3.053,2.213-4.283,4.949-2.747
		l3.416,1.917c2.735,1.539,4.948,5.26,4.948,8.318V232.204z"/>
	<g opacity="0.2">
		<path opacity="0.0909" enable-background="new    " d="M581.795,413.562c2.308-1.332,5.219-2.048,8.125-2.023
			c1.277,0.015,2.492,0.188,3.608,0.471c1.025,0.26,2.208,0.761,3.042,1.242l26.105,15.932c0.03,0.017,0.896,0.547,0.914,0.567
			c2.4,1.434,3.491,3.679,3.363,6.105c-0.133,2.478-1.952,5.041-4.631,6.594l-36.002,20.85c-0.053,0.033-2.859,1.645-2.922,1.665
			c-2.252,1.268-5.049,1.957-7.879,1.949c-2.469-0.008-4.707-0.553-6.477-1.57l-26.889-16.409c-0.014-0.006-0.32-0.197-0.332-0.206
			c-2.449-1.434-3.544-3.697-3.404-6.138c0.144-2.479,1.922-5.027,4.609-6.575L581.795,413.562z"/>
		<path opacity="0.1818" enable-background="new    " d="M580.688,414.591c2.302-1.327,5.211-2.025,8.087-1.966
			c1.271,0.028,2.471,0.229,3.569,0.522c0.919,0.246,2.251,0.846,3.001,1.278l25.952,15.838c0.058,0.032,0.864,0.53,0.906,0.568
			c2.345,1.459,3.126,3.688,2.86,6.069c-0.244,2.221-2.202,4.815-4.618,6.21l-34.606,20.116c-0.107,0.062-2.697,1.542-2.822,1.583
			c-2.189,1.193-4.883,1.84-7.596,1.821c-2.371-0.017-4.528-0.543-6.23-1.521l-26.916-16.425c-0.025-0.015-0.313-0.194-0.336-0.211
			c-2.443-1.458-3.231-3.722-2.947-6.134c0.26-2.217,2.15-4.778,4.566-6.176L580.688,414.591z"/>
		<path opacity="0.2727" enable-background="new    " d="M579.59,415.62c2.283-1.322,5.201-1.995,8.039-1.911
			c1.268,0.041,2.449,0.275,3.535,0.579c0.816,0.227,2.295,0.928,2.962,1.31l25.797,15.746c0.087,0.049,0.836,0.512,0.903,0.568
			c2.287,1.482,2.758,3.671,2.361,6.037c-0.33,1.957-2.458,4.582-4.605,5.822l-33.215,19.38c-0.162,0.096-2.535,1.441-2.722,1.503
			c-2.122,1.122-4.716,1.72-7.31,1.69c-2.275-0.022-4.352-0.525-5.983-1.47l-26.946-16.443c-0.037-0.022-0.31-0.19-0.344-0.213
			c-2.437-1.479-3.331-3.829-2.487-6.132c0-1.982,2.378-4.534,4.525-5.773L579.59,415.62z"/>
		<path opacity="0.3636" enable-background="new    " d="M578.482,416.645c2.278-1.313,5.199-1.964,8.006-1.852
			c1.257,0.053,2.432,0.316,3.498,0.63c0.709,0.208,2.336,1.014,2.917,1.353l25.643,15.647c0.116,0.065,0.807,0.498,0.892,0.573
			c2.236,1.503,2.91,3.808,1.864,5.998c0,1.739-2.71,4.356-4.591,5.438l-31.822,18.645c-0.217,0.124-2.373,1.342-2.625,1.421
			c-2.057,1.049-4.546,1.604-7.025,1.568c-2.178-0.034-4.17-0.521-5.736-1.425l-26.978-16.462c-0.046-0.026-0.302-0.184-0.347-0.217
			c-2.431-1.499-3.156-3.891-2.031-6.126c0-1.735,2.607-4.289,4.486-5.372L578.482,416.645z"/>
		<path opacity="0.4545" enable-background="new    " d="M577.379,417.675c2.264-1.306,5.192-1.938,7.958-1.797
			c1.255,0.065,2.415,0.36,3.466,0.683c0.606,0.188,2.377,1.1,2.878,1.387l25.486,15.555c0.146,0.084,0.776,0.481,0.885,0.575
			c2.184,1.527,2.674,3.849,1.366,5.963c0,1.489-2.967,4.124-4.578,5.056l-30.43,17.906c-0.27,0.156-2.216,1.239-2.525,1.344
			c-1.991,0.975-4.381,1.48-6.742,1.434c-2.082-0.037-3.99-0.506-5.488-1.371l-27.006-16.479c-0.061-0.037-0.301-0.184-0.354-0.223
			c-2.428-1.521-2.978-3.95-1.572-6.12c0-1.49,2.834-4.042,4.445-4.974L577.379,417.675z"/>
		<path opacity="0.5455" enable-background="new    " d="M576.271,418.703c2.256-1.299,5.189-1.911,7.922-1.741
			c1.248,0.079,2.39,0.407,3.431,0.74c0.503,0.159,2.42,1.179,2.834,1.419l25.334,15.461c0.173,0.1,0.745,0.465,0.875,0.581
			c2.13,1.546,2.438,3.881,0.869,5.925c0,1.237-3.227,3.893-4.565,4.666l-29.035,17.171c-0.325,0.189-2.055,1.141-2.427,1.267
			c-1.929,0.899-4.214,1.36-6.46,1.303c-1.984-0.047-3.809-0.497-5.238-1.319l-27.037-16.496c-0.074-0.045-0.293-0.182-0.357-0.229
			c-2.42-1.54-2.804-4.005-1.116-6.114c0-1.239,3.063-3.799,4.407-4.572L576.271,418.703z"/>
		<path opacity="0.6364" enable-background="new    " d="M575.168,419.731c2.24-1.293,5.184-1.883,7.88-1.687
			c1.241,0.096,2.368,0.446,3.396,0.793c0.4,0.133,2.459,1.263,2.794,1.456l25.176,15.362c0.204,0.116,0.716,0.449,0.868,0.584
			c2.074,1.57,2.2,3.924,0.37,5.888c0,0.993-3.479,3.668-4.554,4.288l-27.644,16.434c-0.376,0.218-1.892,1.038-2.326,1.183
			c-1.862,0.832-4.044,1.242-6.174,1.179c-1.89-0.055-3.63-0.485-4.993-1.272l-27.064-16.513c-0.088-0.051-0.285-0.178-0.365-0.23
			c-2.412-1.564-2.627-4.068-0.657-6.11c0-0.993,3.294-3.552,4.367-4.17L575.168,419.731z"/>
		<path opacity="0.7273" enable-background="new    " d="M574.064,420.758c2.23-1.289,5.176-1.855,7.84-1.629
			c1.234,0.105,2.348,0.487,3.358,0.84c0.3,0.108,2.499,1.354,2.75,1.497l25.026,15.271c0.229,0.131,0.686,0.433,0.857,0.583
			c2.022,1.593,1.967,3.965-0.128,5.852c0,0.746-3.732,3.438-4.539,3.901l-26.249,15.701c-0.435,0.248-1.732,0.934-2.231,1.103
			c-1.797,0.755-3.88,1.12-5.888,1.049c-1.795-0.063-3.454-0.478-4.748-1.226l-27.094-16.533c-0.102-0.056-0.283-0.17-0.369-0.232
			c-2.406-1.585-2.447-4.128-0.2-6.106c0-0.742,3.521-3.304,4.328-3.769L574.064,420.758z"/>
		<path opacity="0.8182" enable-background="new    " d="M572.96,421.787c2.22-1.283,5.169-1.83,7.796-1.572
			c1.232,0.12,2.326,0.532,3.324,0.899c0.199,0.073,2.545,1.432,2.71,1.529l24.871,15.173c0.26,0.152,0.655,0.416,0.848,0.589
			c1.967,1.615,1.729,4.002-0.625,5.816c0,0.496-3.988,3.206-4.525,3.517l-24.858,14.96c-0.489,0.284-1.572,0.835-2.13,1.028
			c-1.729,0.681-3.712,1.001-5.604,0.92c-1.696-0.071-3.27-0.465-4.498-1.173l-27.127-16.552c-0.111-0.065-0.274-0.167-0.372-0.236
			c-2.403-1.607-2.275-4.185,0.256-6.1c0-0.498,3.749-3.062,4.286-3.373L572.96,421.787z"/>
		<path opacity="0.9091" enable-background="new    " d="M571.854,422.814c2.211-1.274,5.167-1.799,7.762-1.517
			c1.223,0.132,2.299,0.581,3.285,0.952c0.101,0.038,2.586,1.515,2.67,1.563l24.715,15.084c0.29,0.165,0.627,0.399,0.842,0.591
			c1.912,1.636,1.491,4.036-1.124,5.777c0,0.247-4.244,2.976-4.512,3.133l-23.466,14.227c-0.545,0.311-1.408,0.734-2.031,0.942
			c-1.665,0.612-3.545,0.885-5.32,0.793c-1.6-0.079-3.092-0.452-4.25-1.121l-27.155-16.57c-0.124-0.071-0.272-0.163-0.379-0.238
			c-2.396-1.63-2.099-4.246,0.714-6.096c0-0.249,3.979-2.816,4.246-2.972L571.854,422.814z"/>
		<path d="M570.575,463.002l-27.187-16.587c-2.812-1.623-2.459-4.46,0.786-6.336l26.575-16.237c3.246-1.874,8.155-2.08,10.969-0.455
			l27.186,16.586c2.813,1.626,2.459,4.46-0.786,6.337l-26.572,16.237C578.297,464.423,573.385,464.627,570.575,463.002z"/>
	</g>
	
		<linearGradient id="SVGID_41_" gradientUnits="userSpaceOnUse" x1="789.4873" y1="414.335" x2="857.7842" y2="414.335" gradientTransform="matrix(1 0 0 -1 -247.6602 851.04)">
		<stop  offset="0.0404" style="stop-color:#CCCCCC"/>
		<stop  offset="0.2395" style="stop-color:#CFCFCF"/>
		<stop  offset="0.3434" style="stop-color:#D5D5D5"/>
		<stop  offset="0.4063" style="stop-color:#DFDFDF"/>
		<stop  offset="0.4949" style="stop-color:#F5F5F5"/>
		<stop  offset="0.5859" style="stop-color:#E3E3E3"/>
		<stop  offset="0.688" style="stop-color:#D7D7D7"/>
		<stop  offset="0.858" style="stop-color:#C8C8C8"/>
		<stop  offset="1" style="stop-color:#C3C3C3"/>
	</linearGradient>
	<path fill="url(#SVGID_41_)" d="M610.122,427.802h-0.681c-0.347-0.444-0.821-0.853-1.438-1.205l-26.477-15.291
		c-3.131-1.807-8.604-1.579-12.224,0.51l-24.485,14.137c-0.962,0.555-1.689,1.185-2.187,1.848h-0.805v16.217h0.021
		c0.101,1.049,0.786,2.042,2.098,2.799l26.477,15.285c3.135,1.809,8.605,1.582,12.224-0.504l24.484-14.138
		c1.716-0.992,2.699-2.227,2.932-3.442h0.063v-16.215H610.122z"/>
	
		<linearGradient id="SVGID_42_" gradientUnits="userSpaceOnUse" x1="838.9727" y1="462.7461" x2="815.4793" y2="402.1004" gradientTransform="matrix(1 0 0 -1 -247.6602 851.04)">
		<stop  offset="0" style="stop-color:#C8C8C8"/>
		<stop  offset="0.2285" style="stop-color:#CFCFCF"/>
		<stop  offset="0.549" style="stop-color:#E1E1E1"/>
		<stop  offset="0.5808" style="stop-color:#E3E3E3"/>
		<stop  offset="0.9935" style="stop-color:#EBDEF3"/>
		<stop  offset="1" style="stop-color:#EBDEF3"/>
	</linearGradient>
	<path fill="url(#SVGID_42_)" d="M570.417,446.385l-26.477-15.287c-3.134-1.807-2.743-4.966,0.876-7.057l24.485-14.139
		c3.621-2.088,9.093-2.314,12.224-0.508l26.479,15.291c3.134,1.808,2.743,4.966-0.878,7.057l-24.483,14.137
		C579.021,447.965,573.553,448.194,570.417,446.385z"/>
	
		<radialGradient id="SVGID_43_" cx="358.3037" cy="764.1377" r="1.1902" gradientTransform="matrix(21.1588 0 0 -21.1588 -7005.3145 16606.0039)" gradientUnits="userSpaceOnUse">
		<stop  offset="0" style="stop-color:#FFFFFF"/>
		<stop  offset="1" style="stop-color:#000000"/>
	</radialGradient>
	<path fill="url(#SVGID_43_)" d="M607.128,431.194l-24.485,14.137c-3.618,2.091-9.09,2.317-12.223,0.51l-26.479-15.291
		c-1.258-0.724-1.937-1.67-2.078-2.676c-0.193,1.304,0.483,2.576,2.078,3.5l26.479,15.285c3.135,1.807,8.607,1.582,12.223-0.506
		l24.485-14.135c2.167-1.255,3.163-2.888,2.957-4.385C609.896,428.885,608.904,430.168,607.128,431.194z"/>
	
		<linearGradient id="SVGID_44_" gradientUnits="userSpaceOnUse" x1="792.0391" y1="427.2925" x2="855.2275" y2="427.2925" gradientTransform="matrix(1 0 0 -1 -247.6602 851.04)">
		<stop  offset="0" style="stop-color:#3A3D4D"/>
		<stop  offset="0.5" style="stop-color:#0D108A"/>
		<stop  offset="1" style="stop-color:#3A3D4D"/>
	</linearGradient>
	<path fill="url(#SVGID_44_)" d="M607.567,418.738h-0.632c-0.318-0.412-0.761-0.787-1.327-1.116l-24.497-14.145
		c-2.898-1.675-7.961-1.463-11.311,0.471l-22.655,13.076c-0.886,0.513-1.56,1.102-2.022,1.714h-0.744v8.549h0.02
		c0.096,0.973,0.728,1.891,1.936,2.59l24.497,14.141c2.9,1.675,7.964,1.465,11.311-0.467l22.655-13.082
		c1.59-0.918,2.499-2.056,2.71-3.182h0.059v-8.549H607.567z"/>
	
		<linearGradient id="SVGID_45_" gradientUnits="userSpaceOnUse" x1="792.0391" y1="428.75" x2="855.2275" y2="428.75" gradientTransform="matrix(1 0 0 -1 -247.6602 851.04)">
		<stop  offset="0" style="stop-color:#1250C9"/>
		<stop  offset="0.045" style="stop-color:#366BD1"/>
		<stop  offset="0.1453" style="stop-color:#92AEE6"/>
		<stop  offset="0.2576" style="stop-color:#FFFFFF"/>
		<stop  offset="0.3692" style="stop-color:#C8D6F2"/>
		<stop  offset="0.5118" style="stop-color:#88A7E4"/>
		<stop  offset="0.6418" style="stop-color:#5582D8"/>
		<stop  offset="0.7546" style="stop-color:#3167D0"/>
		<stop  offset="0.8458" style="stop-color:#1A56CB"/>
		<stop  offset="0.904" style="stop-color:#1250C9"/>
	</linearGradient>
	<path fill="url(#SVGID_45_)" d="M607.567,417.277h-0.632c-0.318-0.407-0.761-0.785-1.327-1.113l-24.497-14.143
		c-2.898-1.675-7.961-1.465-11.311,0.469l-22.655,13.078c-0.886,0.517-1.56,1.102-2.022,1.709h-0.744v8.552h0.02
		c0.096,0.975,0.728,1.891,1.936,2.59l24.497,14.141c2.9,1.675,7.964,1.465,11.311-0.467l22.655-13.078
		c1.59-0.918,2.499-2.058,2.71-3.186h0.059v-8.552H607.567z"/>
	
		<linearGradient id="SVGID_46_" gradientUnits="userSpaceOnUse" x1="789.4873" y1="432.4531" x2="857.7842" y2="432.4531" gradientTransform="matrix(1 0 0 -1 -247.6602 851.04)">
		<stop  offset="0.0404" style="stop-color:#CCCCCC"/>
		<stop  offset="0.2395" style="stop-color:#CFCFCF"/>
		<stop  offset="0.3434" style="stop-color:#D5D5D5"/>
		<stop  offset="0.4063" style="stop-color:#DFDFDF"/>
		<stop  offset="0.4949" style="stop-color:#F5F5F5"/>
		<stop  offset="0.5859" style="stop-color:#E3E3E3"/>
		<stop  offset="0.688" style="stop-color:#D7D7D7"/>
		<stop  offset="0.858" style="stop-color:#C8C8C8"/>
		<stop  offset="1" style="stop-color:#C3C3C3"/>
	</linearGradient>
	<path fill="url(#SVGID_46_)" d="M610.122,413.174h-0.681c-0.347-0.445-0.821-0.853-1.438-1.208l-26.477-15.289
		c-3.131-1.809-8.604-1.578-12.224,0.508l-24.485,14.138c-0.962,0.557-1.689,1.187-2.187,1.848h-0.805v9.244h0.021
		c0.101,1.048,0.786,2.039,2.098,2.794l26.477,15.287c3.135,1.811,8.605,1.58,12.224-0.506l24.484-14.137
		c1.716-0.991,2.699-2.226,2.932-3.438h0.063v-9.24H610.122z"/>
	
		<linearGradient id="SVGID_47_" gradientUnits="userSpaceOnUse" x1="838.9717" y1="477.3774" x2="815.4766" y2="416.726" gradientTransform="matrix(1 0 0 -1 -247.6602 851.04)">
		<stop  offset="0" style="stop-color:#C8C8C8"/>
		<stop  offset="0.2285" style="stop-color:#CFCFCF"/>
		<stop  offset="0.549" style="stop-color:#E1E1E1"/>
		<stop  offset="0.5808" style="stop-color:#E3E3E3"/>
		<stop  offset="0.9935" style="stop-color:#EBDEF3"/>
		<stop  offset="1" style="stop-color:#EBDEF3"/>
	</linearGradient>
	<path fill="url(#SVGID_47_)" d="M570.417,431.759l-26.477-15.29c-3.134-1.809-2.743-4.968,0.876-7.058l24.485-14.14
		c3.621-2.086,9.093-2.314,12.224-0.505l26.479,15.289c3.134,1.809,2.743,4.968-0.878,7.056l-24.483,14.137
		C579.021,433.337,573.553,433.568,570.417,431.759z"/>
	
		<radialGradient id="SVGID_48_" cx="358.3037" cy="764.249" r="1.1902" gradientTransform="matrix(21.1588 0 0 -21.1588 -7005.3145 16593.7227)" gradientUnits="userSpaceOnUse">
		<stop  offset="0" style="stop-color:#FFFFFF"/>
		<stop  offset="1" style="stop-color:#000000"/>
	</radialGradient>
	<path fill="url(#SVGID_48_)" d="M607.128,416.564l-24.485,14.137c-3.618,2.09-9.09,2.318-12.223,0.51l-26.479-15.289
		c-1.258-0.727-1.937-1.673-2.078-2.676c-0.193,1.301,0.483,2.575,2.078,3.497l26.479,15.285c3.135,1.81,8.607,1.583,12.223-0.504
		l24.485-14.137c2.167-1.252,3.163-2.888,2.957-4.385C609.896,414.259,608.904,415.542,607.128,416.564z"/>
	
		<linearGradient id="SVGID_49_" gradientUnits="userSpaceOnUse" x1="792.0391" y1="441.9219" x2="855.2275" y2="441.9219" gradientTransform="matrix(1 0 0 -1 -247.6602 851.04)">
		<stop  offset="0" style="stop-color:#3A3D4D"/>
		<stop  offset="0.5" style="stop-color:#0D108A"/>
		<stop  offset="1" style="stop-color:#3A3D4D"/>
	</linearGradient>
	<path fill="url(#SVGID_49_)" d="M607.567,404.109h-0.632c-0.318-0.412-0.761-0.789-1.327-1.117l-24.497-14.146
		c-2.898-1.674-7.961-1.462-11.311,0.472l-22.655,13.08c-0.886,0.514-1.56,1.1-2.022,1.711h-0.744v8.549h0.02
		c0.096,0.971,0.728,1.889,1.936,2.588l24.497,14.142c2.9,1.674,7.964,1.468,11.311-0.467l22.655-13.081
		c1.59-0.913,2.499-2.058,2.71-3.182h0.059v-8.549H607.567z"/>
	<path fill="#214CDE" d="M607.567,402.649h-0.632c-0.318-0.41-0.761-0.785-1.327-1.113l-24.497-14.144
		c-2.898-1.674-7.961-1.466-11.311,0.47l-22.655,13.08c-0.886,0.512-1.56,1.098-2.022,1.707h-0.744v8.553h0.02
		c0.096,0.971,0.728,1.889,1.936,2.588l24.497,14.142c2.9,1.672,7.964,1.464,11.311-0.467l22.655-13.081
		c1.59-0.918,2.499-2.056,2.71-3.182h0.059v-8.553H607.567z"/>
	
		<linearGradient id="SVGID_50_" gradientUnits="userSpaceOnUse" x1="789.4873" y1="447.084" x2="857.7842" y2="447.084" gradientTransform="matrix(1 0 0 -1 -247.6602 851.04)">
		<stop  offset="0.0404" style="stop-color:#CCCCCC"/>
		<stop  offset="0.2395" style="stop-color:#CFCFCF"/>
		<stop  offset="0.3434" style="stop-color:#D5D5D5"/>
		<stop  offset="0.4063" style="stop-color:#DFDFDF"/>
		<stop  offset="0.4949" style="stop-color:#F5F5F5"/>
		<stop  offset="0.5859" style="stop-color:#E3E3E3"/>
		<stop  offset="0.688" style="stop-color:#D7D7D7"/>
		<stop  offset="0.858" style="stop-color:#C8C8C8"/>
		<stop  offset="1" style="stop-color:#C3C3C3"/>
	</linearGradient>
	<path fill="url(#SVGID_50_)" d="M610.122,398.542h-0.681c-0.347-0.444-0.821-0.849-1.438-1.205l-26.477-15.289
		c-3.131-1.81-8.604-1.581-12.224,0.506l-24.485,14.139c-0.962,0.557-1.689,1.187-2.187,1.848h-0.805v9.244h0.021
		c0.101,1.049,0.786,2.038,2.098,2.792l26.477,15.291c3.135,1.808,8.605,1.581,12.224-0.51l24.484-14.137
		c1.716-0.987,2.699-2.221,2.932-3.435h0.063v-9.244H610.122z"/>
	
		<linearGradient id="SVGID_51_" gradientUnits="userSpaceOnUse" x1="838.9707" y1="492.0024" x2="815.4783" y2="431.3586" gradientTransform="matrix(1 0 0 -1 -247.6602 851.04)">
		<stop  offset="0" style="stop-color:#C8C8C8"/>
		<stop  offset="0.2285" style="stop-color:#CFCFCF"/>
		<stop  offset="0.549" style="stop-color:#E1E1E1"/>
		<stop  offset="0.5808" style="stop-color:#E3E3E3"/>
		<stop  offset="0.9935" style="stop-color:#EBDEF3"/>
		<stop  offset="1" style="stop-color:#EBDEF3"/>
	</linearGradient>
	<path fill="url(#SVGID_51_)" d="M570.417,417.126l-26.477-15.287c-3.134-1.812-2.743-4.966,0.876-7.059l24.485-14.137
		c3.621-2.091,9.093-2.316,12.224-0.504l26.479,15.283c3.134,1.811,2.743,4.97-0.878,7.061l-24.483,14.137
		C579.021,418.707,573.553,418.937,570.417,417.126z"/>
	
		<radialGradient id="SVGID_52_" cx="358.3037" cy="764.3594" r="1.1902" gradientTransform="matrix(21.1588 0 0 -21.1588 -7005.3145 16581.4258)" gradientUnits="userSpaceOnUse">
		<stop  offset="0" style="stop-color:#FFFFFF"/>
		<stop  offset="1" style="stop-color:#000000"/>
	</radialGradient>
	<path fill="url(#SVGID_52_)" d="M607.128,401.937l-24.485,14.135c-3.618,2.089-9.09,2.317-12.223,0.508l-26.479-15.289
		c-1.258-0.722-1.937-1.67-2.078-2.674c-0.193,1.304,0.483,2.574,2.078,3.498L570.42,417.4c3.135,1.807,8.607,1.582,12.223-0.506
		l24.485-14.137c2.167-1.253,3.163-2.886,2.957-4.383C609.896,399.626,608.904,400.91,607.128,401.937z"/>
	
		<linearGradient id="SVGID_53_" gradientUnits="userSpaceOnUse" x1="792.0391" y1="456.5527" x2="855.2275" y2="456.5527" gradientTransform="matrix(1 0 0 -1 -247.6602 851.04)">
		<stop  offset="0" style="stop-color:#3A3D4D"/>
		<stop  offset="0.5" style="stop-color:#0D108A"/>
		<stop  offset="1" style="stop-color:#3A3D4D"/>
	</linearGradient>
	<path fill="url(#SVGID_53_)" d="M607.567,389.477h-0.632c-0.318-0.41-0.761-0.785-1.327-1.114l-24.497-14.146
		c-2.898-1.677-7.961-1.463-11.311,0.471l-22.655,13.078c-0.886,0.515-1.56,1.1-2.022,1.712h-0.744v8.551h0.02
		c0.096,0.969,0.728,1.891,1.936,2.588l24.497,14.143c2.9,1.675,7.964,1.465,11.311-0.469l22.655-13.082
		c1.59-0.914,2.499-2.059,2.71-3.18h0.059v-8.551H607.567z"/>
	<path fill="#214CDE" d="M607.567,388.018h-0.632c-0.318-0.407-0.761-0.787-1.327-1.113l-24.497-14.145
		c-2.898-1.673-7.961-1.463-11.311,0.469l-22.655,13.082c-0.886,0.511-1.56,1.096-2.022,1.707h-0.744v8.556h0.02
		c0.096,0.969,0.728,1.887,1.936,2.584l24.497,14.143c2.9,1.675,7.964,1.463,11.311-0.469l22.655-13.076
		c1.59-0.918,2.499-2.061,2.71-3.182h0.059v-8.556H607.567z"/>
	
		<linearGradient id="SVGID_54_" gradientUnits="userSpaceOnUse" x1="789.4873" y1="461.7134" x2="857.7842" y2="461.7134" gradientTransform="matrix(1 0 0 -1 -247.6602 851.04)">
		<stop  offset="0.0404" style="stop-color:#CCCCCC"/>
		<stop  offset="0.2395" style="stop-color:#CFCFCF"/>
		<stop  offset="0.3434" style="stop-color:#D5D5D5"/>
		<stop  offset="0.4063" style="stop-color:#DFDFDF"/>
		<stop  offset="0.4949" style="stop-color:#F5F5F5"/>
		<stop  offset="0.5859" style="stop-color:#E3E3E3"/>
		<stop  offset="0.688" style="stop-color:#D7D7D7"/>
		<stop  offset="0.858" style="stop-color:#C8C8C8"/>
		<stop  offset="1" style="stop-color:#C3C3C3"/>
	</linearGradient>
	<path fill="url(#SVGID_54_)" d="M610.122,383.911h-0.681c-0.347-0.442-0.821-0.848-1.438-1.207l-26.477-15.283
		c-3.131-1.813-8.604-1.584-12.224,0.504l-24.485,14.137c-0.962,0.557-1.689,1.188-2.187,1.848h-0.805v9.245h0.021
		c0.101,1.048,0.786,2.037,2.098,2.794l26.477,15.289c3.135,1.809,8.605,1.578,12.224-0.508l24.484-14.137
		c1.716-0.991,2.699-2.226,2.932-3.437h0.063v-9.245H610.122z"/>
	
		<linearGradient id="SVGID_55_" gradientUnits="userSpaceOnUse" x1="838.9707" y1="506.6318" x2="815.4777" y2="445.9864" gradientTransform="matrix(1 0 0 -1 -247.6602 851.04)">
		<stop  offset="0" style="stop-color:#C8C8C8"/>
		<stop  offset="0.2285" style="stop-color:#CFCFCF"/>
		<stop  offset="0.549" style="stop-color:#E1E1E1"/>
		<stop  offset="0.5808" style="stop-color:#E3E3E3"/>
		<stop  offset="0.9935" style="stop-color:#EBDEF3"/>
		<stop  offset="1" style="stop-color:#EBDEF3"/>
	</linearGradient>
	<path fill="url(#SVGID_55_)" d="M570.417,402.498L543.94,387.21c-3.134-1.811-2.743-4.968,0.876-7.06l24.485-14.135
		c3.621-2.091,9.093-2.317,12.224-0.506l26.479,15.285c3.134,1.809,2.743,4.97-0.878,7.058l-24.483,14.137
		C579.021,404.081,573.553,404.309,570.417,402.498z"/>
	
		<radialGradient id="SVGID_56_" cx="358.3037" cy="764.4697" r="1.1902" gradientTransform="matrix(21.1588 0 0 -21.1588 -7005.3145 16569.1289)" gradientUnits="userSpaceOnUse">
		<stop  offset="0" style="stop-color:#FFFFFF"/>
		<stop  offset="1" style="stop-color:#000000"/>
	</radialGradient>
	<path fill="url(#SVGID_56_)" d="M607.128,387.307l-24.485,14.135c-3.618,2.09-9.09,2.318-12.223,0.51l-26.479-15.289
		c-1.258-0.725-1.937-1.673-2.078-2.674c-0.193,1.301,0.483,2.573,2.078,3.495l26.479,15.285c3.135,1.809,8.607,1.583,12.223-0.504
		l24.485-14.137c2.167-1.254,3.163-2.888,2.957-4.385C609.896,385,608.904,386.283,607.128,387.307z"/>
	
		<linearGradient id="SVGID_57_" gradientUnits="userSpaceOnUse" x1="792.0391" y1="471.1821" x2="855.2275" y2="471.1821" gradientTransform="matrix(1 0 0 -1 -247.6602 851.04)">
		<stop  offset="0" style="stop-color:#3A3D4D"/>
		<stop  offset="0.5" style="stop-color:#0D108A"/>
		<stop  offset="1" style="stop-color:#3A3D4D"/>
	</linearGradient>
	<path fill="url(#SVGID_57_)" d="M607.567,374.846h-0.632c-0.318-0.41-0.761-0.785-1.327-1.115l-24.497-14.142
		c-2.898-1.678-7.961-1.464-11.311,0.467l-22.655,13.079c-0.886,0.516-1.56,1.099-2.022,1.711h-0.744v8.549h0.02
		c0.096,0.973,0.728,1.891,1.936,2.59l24.497,14.144c2.9,1.674,7.964,1.464,11.311-0.47l22.655-13.08
		c1.59-0.914,2.499-2.058,2.71-3.184h0.059v-8.549H607.567z"/>
	<path fill="#214CDE" d="M607.567,373.388h-0.632c-0.318-0.408-0.761-0.785-1.327-1.113l-24.497-14.144
		c-2.898-1.674-7.961-1.464-11.311,0.467l-22.655,13.083c-0.886,0.51-1.56,1.097-2.022,1.707h-0.744v8.555h0.02
		c0.096,0.971,0.728,1.891,1.936,2.584l24.497,14.146c2.9,1.672,7.964,1.462,11.311-0.472l22.655-13.076
		c1.59-0.918,2.499-2.058,2.71-3.182h0.059v-8.555H607.567z"/>
	
		<linearGradient id="SVGID_58_" gradientUnits="userSpaceOnUse" x1="789.4873" y1="476.3428" x2="857.7842" y2="476.3428" gradientTransform="matrix(1 0 0 -1 -247.6602 851.04)">
		<stop  offset="0.0404" style="stop-color:#CCCCCC"/>
		<stop  offset="0.2395" style="stop-color:#CFCFCF"/>
		<stop  offset="0.3434" style="stop-color:#D5D5D5"/>
		<stop  offset="0.4063" style="stop-color:#DFDFDF"/>
		<stop  offset="0.4949" style="stop-color:#F5F5F5"/>
		<stop  offset="0.5859" style="stop-color:#E3E3E3"/>
		<stop  offset="0.688" style="stop-color:#D7D7D7"/>
		<stop  offset="0.858" style="stop-color:#C8C8C8"/>
		<stop  offset="1" style="stop-color:#C3C3C3"/>
	</linearGradient>
	<path fill="url(#SVGID_58_)" d="M610.122,369.281h-0.681c-0.347-0.438-0.821-0.849-1.438-1.205l-26.477-15.285
		c-3.131-1.812-8.604-1.583-12.224,0.504l-24.485,14.137c-0.962,0.557-1.689,1.188-2.187,1.85h-0.805v9.242h0.021
		c0.101,1.049,0.786,2.039,2.098,2.794l26.477,15.291c3.135,1.808,8.605,1.577,12.224-0.51l24.484-14.137
		c1.716-0.989,2.699-2.223,2.932-3.437h0.063v-9.244H610.122z"/>
	
		<linearGradient id="SVGID_59_" gradientUnits="userSpaceOnUse" x1="838.9717" y1="521.2617" x2="815.4774" y2="460.6148" gradientTransform="matrix(1 0 0 -1 -247.6602 851.04)">
		<stop  offset="0" style="stop-color:#C8C8C8"/>
		<stop  offset="0.2285" style="stop-color:#CFCFCF"/>
		<stop  offset="0.549" style="stop-color:#E1E1E1"/>
		<stop  offset="0.5808" style="stop-color:#E3E3E3"/>
		<stop  offset="0.9935" style="stop-color:#EBDEF3"/>
		<stop  offset="1" style="stop-color:#EBDEF3"/>
	</linearGradient>
	<path fill="url(#SVGID_59_)" d="M570.417,387.868l-26.477-15.287c-3.134-1.812-2.743-4.968,0.876-7.059l24.485-14.137
		c3.621-2.091,9.093-2.316,12.224-0.504l26.479,15.285c3.134,1.809,2.743,4.968-0.878,7.057l-24.483,14.139
		C579.021,389.448,573.553,389.678,570.417,387.868z"/>
	
		<radialGradient id="SVGID_60_" cx="358.3047" cy="764.5801" r="1.1899" gradientTransform="matrix(21.1591 0 0 -21.1592 -7005.4194 16557.1367)" gradientUnits="userSpaceOnUse">
		<stop  offset="0" style="stop-color:#FFFFFF"/>
		<stop  offset="1" style="stop-color:#000000"/>
	</radialGradient>
	<path fill="url(#SVGID_60_)" d="M607.128,372.678l-24.485,14.135c-3.618,2.089-9.09,2.316-12.223,0.508l-26.479-15.289
		c-1.258-0.724-1.937-1.67-2.078-2.674c-0.193,1.304,0.483,2.574,2.078,3.496l26.479,15.287c3.135,1.813,8.607,1.582,12.223-0.506
		l24.485-14.137c2.167-1.253,3.163-2.886,2.957-4.385C609.896,370.37,608.904,371.651,607.128,372.678z"/>
	
		<linearGradient id="SVGID_61_" gradientUnits="userSpaceOnUse" x1="792.0391" y1="485.8105" x2="855.2275" y2="485.8105" gradientTransform="matrix(1 0 0 -1 -247.6602 851.04)">
		<stop  offset="0" style="stop-color:#3A3D4D"/>
		<stop  offset="0.5" style="stop-color:#0D108A"/>
		<stop  offset="1" style="stop-color:#3A3D4D"/>
	</linearGradient>
	<path fill="url(#SVGID_61_)" d="M607.567,360.217h-0.632c-0.318-0.409-0.761-0.787-1.327-1.113l-24.497-14.145
		c-2.898-1.673-7.961-1.465-11.311,0.469l-22.655,13.078c-0.886,0.517-1.56,1.1-2.022,1.711h-0.744v8.552h0.02
		c0.096,0.969,0.728,1.889,1.936,2.588l24.497,14.143c2.9,1.673,7.964,1.465,11.311-0.467l22.655-13.082
		c1.59-0.916,2.499-2.059,2.71-3.182h0.059v-8.552H607.567z"/>
	<path fill="#214CDE" d="M607.567,358.759h-0.632c-0.318-0.409-0.761-0.787-1.327-1.113l-24.497-14.145
		c-2.898-1.673-7.961-1.465-11.311,0.469l-22.655,13.08c-0.886,0.512-1.56,1.098-2.022,1.709h-0.744v8.554h0.02
		c0.096,0.971,0.728,1.891,1.936,2.584l24.497,14.146c2.9,1.675,7.964,1.46,11.311-0.471l22.655-13.079
		c1.59-0.917,2.499-2.058,2.71-3.181h0.059v-8.554H607.567z"/>
	
		<linearGradient id="SVGID_62_" gradientUnits="userSpaceOnUse" x1="789.4873" y1="490.7334" x2="857.7842" y2="490.7334" gradientTransform="matrix(1 0 0 -1 -247.6602 851.04)">
		<stop  offset="0.0404" style="stop-color:#CCCCCC"/>
		<stop  offset="0.2395" style="stop-color:#CFCFCF"/>
		<stop  offset="0.3434" style="stop-color:#D5D5D5"/>
		<stop  offset="0.4063" style="stop-color:#DFDFDF"/>
		<stop  offset="0.4949" style="stop-color:#F5F5F5"/>
		<stop  offset="0.5859" style="stop-color:#E3E3E3"/>
		<stop  offset="0.688" style="stop-color:#D7D7D7"/>
		<stop  offset="0.858" style="stop-color:#C8C8C8"/>
		<stop  offset="1" style="stop-color:#C3C3C3"/>
	</linearGradient>
	<path fill="url(#SVGID_62_)" d="M610.122,354.889h-0.681c-0.347-0.438-0.821-0.849-1.438-1.206l-26.477-15.284
		c-3.131-1.81-8.604-1.585-12.224,0.503l-24.485,14.142c-0.962,0.551-1.689,1.185-2.187,1.844h-0.805v9.242h0.021
		c0.101,1.05,0.786,2.041,2.098,2.8l26.477,15.285c3.135,1.811,8.605,1.583,12.224-0.504l24.484-14.137
		c1.716-0.993,2.699-2.229,2.932-3.442h0.063v-9.242H610.122z"/>
	
		<linearGradient id="SVGID_63_" gradientUnits="userSpaceOnUse" x1="838.9727" y1="535.6563" x2="815.4783" y2="475.0084" gradientTransform="matrix(1 0 0 -1 -247.6602 851.04)">
		<stop  offset="0" style="stop-color:#C8C8C8"/>
		<stop  offset="0.2285" style="stop-color:#CFCFCF"/>
		<stop  offset="0.549" style="stop-color:#E1E1E1"/>
		<stop  offset="0.5808" style="stop-color:#E3E3E3"/>
		<stop  offset="0.9935" style="stop-color:#EBDEF3"/>
		<stop  offset="1" style="stop-color:#EBDEF3"/>
	</linearGradient>
	<path fill="url(#SVGID_63_)" d="M570.417,373.476l-26.477-15.285c-3.134-1.81-2.743-4.968,0.876-7.059l24.485-14.139
		c3.621-2.093,9.093-2.315,12.224-0.506l26.479,15.289c3.134,1.809,2.743,4.968-0.878,7.056l-24.483,14.138
		C579.021,375.058,573.553,375.287,570.417,373.476z"/>
	
		<radialGradient id="SVGID_64_" cx="358.3037" cy="764.6885" r="1.1902" gradientTransform="matrix(21.1586 0 0 -21.1586 -7005.2441 16544.5859)" gradientUnits="userSpaceOnUse">
		<stop  offset="0" style="stop-color:#FFFFFF"/>
		<stop  offset="1" style="stop-color:#000000"/>
	</radialGradient>
	<path fill="url(#SVGID_64_)" d="M607.128,358.287l-24.485,14.137c-3.618,2.088-9.09,2.316-12.223,0.506l-26.479-15.287
		c-1.258-0.729-1.937-1.673-2.078-2.676c-0.193,1.301,0.483,2.571,2.078,3.493l26.479,15.291c3.135,1.808,8.607,1.579,12.223-0.51
		l24.485-14.135c2.167-1.252,3.163-2.886,2.957-4.382C609.896,355.98,608.904,357.262,607.128,358.287z"/>
	
		<linearGradient id="SVGID_65_" gradientUnits="userSpaceOnUse" x1="809.6611" y1="494.2896" x2="838.0822" y2="494.2896" gradientTransform="matrix(1 0 0 -1 -247.6602 851.04)">
		<stop  offset="0.0101" style="stop-color:#D5D5D5"/>
		<stop  offset="0.0816" style="stop-color:#DFDFDF"/>
		<stop  offset="0.2034" style="stop-color:#FAFAFA"/>
		<stop  offset="0.2222" style="stop-color:#FFFFFF"/>
		<stop  offset="0.2832" style="stop-color:#F5F5F5"/>
		<stop  offset="0.3586" style="stop-color:#E3E3E3"/>
		<stop  offset="0.4209" style="stop-color:#D7D7D7"/>
		<stop  offset="0.5245" style="stop-color:#C8C8C8"/>
		<stop  offset="0.6111" style="stop-color:#C3C3C3"/>
		<stop  offset="1" style="stop-color:#CCCCCC"/>
	</linearGradient>
	<path fill="url(#SVGID_65_)" d="M590.741,349.68h-28.88v5.616c0,0,0,0.076,0,0.116c0,4.642,6.464,8.408,14.439,8.408
		c7.975,0,14.438-3.765,14.438-8.408c0-0.04-0.002-0.079-0.002-0.116h0.002L590.741,349.68z"/>
	
		<linearGradient id="SVGID_66_" gradientUnits="userSpaceOnUse" x1="840.918" y1="519.4795" x2="818.0428" y2="494.9513" gradientTransform="matrix(1 0 0 -1 -247.6602 851.04)">
		<stop  offset="0" style="stop-color:#C8C8C8"/>
		<stop  offset="0.2285" style="stop-color:#CFCFCF"/>
		<stop  offset="0.549" style="stop-color:#E1E1E1"/>
		<stop  offset="0.5808" style="stop-color:#E3E3E3"/>
		<stop  offset="0.9935" style="stop-color:#EBDEF3"/>
		<stop  offset="1" style="stop-color:#EBDEF3"/>
	</linearGradient>
	<path fill="url(#SVGID_66_)" d="M576.303,358.15c7.975,0,14.438-3.765,14.438-8.408c0-4.646-6.464-8.41-14.438-8.41
		c-7.976,0-14.439,3.765-14.439,8.41C561.863,354.385,568.327,358.15,576.303,358.15z"/>
	<path fill="#D6D6D6" d="M576.303,355.068c5.016,0,9.084-2.367,9.084-5.29c0-2.922-4.068-5.29-9.084-5.29
		c-5.019,0-9.086,2.368-9.086,5.29C567.217,352.701,571.284,355.068,576.303,355.068z"/>
	
		<linearGradient id="SVGID_67_" gradientUnits="userSpaceOnUse" x1="834.5176" y1="502.6567" x2="812.208" y2="502.6567" gradientTransform="matrix(1 0 0 -1 -247.6602 851.04)">
		<stop  offset="0.0101" style="stop-color:#D5D5D5"/>
		<stop  offset="0.0816" style="stop-color:#DFDFDF"/>
		<stop  offset="0.2034" style="stop-color:#FAFAFA"/>
		<stop  offset="0.2222" style="stop-color:#FFFFFF"/>
		<stop  offset="0.2832" style="stop-color:#F5F5F5"/>
		<stop  offset="0.3586" style="stop-color:#E3E3E3"/>
		<stop  offset="0.4209" style="stop-color:#D7D7D7"/>
		<stop  offset="0.5245" style="stop-color:#C8C8C8"/>
		<stop  offset="0.6111" style="stop-color:#C3C3C3"/>
		<stop  offset="1" style="stop-color:#CCCCCC"/>
	</linearGradient>
	<path fill="url(#SVGID_67_)" d="M576.303,349.5c3.458,0,6.466,1.126,7.998,2.78c0.695-0.742,1.086-1.597,1.086-2.503
		c0-2.922-4.066-5.29-9.084-5.29c-5.019,0-9.086,2.366-9.086,5.29c0,0.906,0.391,1.763,1.085,2.503
		C569.836,350.626,572.842,349.5,576.303,349.5z"/>
	
		<radialGradient id="SVGID_68_" cx="369.5591" cy="769.8633" r="1.1902" gradientTransform="matrix(8.9481 0 0 -8.9482 -2735.2007 7245.8467)" gradientUnits="userSpaceOnUse">
		<stop  offset="0" style="stop-color:#FFFFFF"/>
		<stop  offset="1" style="stop-color:#000000"/>
	</radialGradient>
	<path fill="url(#SVGID_68_)" d="M576.303,358.117c-7.889,0-14.295-3.685-14.432-8.257c-0.006,0.051-0.008,0.1-0.008,0.152
		c0,4.643,6.464,8.407,14.439,8.407c7.975,0,14.438-3.765,14.438-8.407c0-0.053-0.005-0.102-0.007-0.152
		C590.598,354.432,584.191,358.117,576.303,358.117z"/>
	
		<linearGradient id="SVGID_69_" gradientUnits="userSpaceOnUse" x1="809.2979" y1="396.6094" x2="828.7869" y2="402.4452" gradientTransform="matrix(1 0 0 -1 -247.6602 851.04)">
		<stop  offset="0" style="stop-color:#C8C8C8"/>
		<stop  offset="0.2285" style="stop-color:#CFCFCF"/>
		<stop  offset="0.549" style="stop-color:#E1E1E1"/>
		<stop  offset="0.5808" style="stop-color:#E3E3E3"/>
		<stop  offset="0.9935" style="stop-color:#EBDEF3"/>
		<stop  offset="1" style="stop-color:#EBDEF3"/>
	</linearGradient>
	<path fill="url(#SVGID_69_)" d="M560.162,448.93v13.656l5.913-3.545v-13.655L560.162,448.93z"/>
	
		<linearGradient id="SVGID_70_" gradientUnits="userSpaceOnUse" x1="774.8027" y1="393.9844" x2="826.506" y2="405.5746" gradientTransform="matrix(1 0 0 -1 -247.6602 851.04)">
		<stop  offset="0" style="stop-color:#C8C8C8"/>
		<stop  offset="0.2285" style="stop-color:#CFCFCF"/>
		<stop  offset="0.549" style="stop-color:#E1E1E1"/>
		<stop  offset="0.5808" style="stop-color:#E3E3E3"/>
		<stop  offset="0.9935" style="stop-color:#EBDEF3"/>
		<stop  offset="1" style="stop-color:#EBDEF3"/>
	</linearGradient>
	<path fill="url(#SVGID_70_)" d="M560.172,448.93v13.656l-15.48-8.758v-13.644L560.172,448.93z"/>
	<path fill="#3A3D4D" d="M547.551,453.125v-9.361l9.762,5.413v9.373L547.551,453.125z"/>
	
		<linearGradient id="SVGID_71_" gradientUnits="userSpaceOnUse" x1="809.9834" y1="421.4775" x2="801.5428" y2="405.3924" gradientTransform="matrix(1 0 0 -1 -247.6602 851.04)">
		<stop  offset="0" style="stop-color:#C8C8C8"/>
		<stop  offset="0.2285" style="stop-color:#CFCFCF"/>
		<stop  offset="0.549" style="stop-color:#E1E1E1"/>
		<stop  offset="0.5808" style="stop-color:#E3E3E3"/>
		<stop  offset="0.9935" style="stop-color:#EBDEF3"/>
		<stop  offset="1" style="stop-color:#EBDEF3"/>
	</linearGradient>
	<path fill="url(#SVGID_71_)" d="M544.691,440.188l15.48,8.742l5.903-3.544l-15.504-8.76L544.691,440.188z"/>
	
		<linearGradient id="SVGID_72_" gradientUnits="userSpaceOnUse" x1="801.665" y1="397.2759" x2="797.7557" y2="404.0497" gradientTransform="matrix(1 0 0 -1 -247.6602 851.04)">
		<stop  offset="0.2879" style="stop-color:#838091"/>
		<stop  offset="0.4656" style="stop-color:#A5A2B1"/>
		<stop  offset="0.5859" style="stop-color:#B7B4C2"/>
		<stop  offset="0.8081" style="stop-color:#9B98A7"/>
	</linearGradient>
	<path fill="url(#SVGID_72_)" d="M554.711,452.167c0,0.8-0.278,1.367-0.727,1.645c0,0-0.826,0.475-0.838,0.485
		c-0.467,0.263-0.167-0.331-0.881-0.745c-1.43-0.823-2.591-2.826-2.591-4.466c0-0.813-0.749-0.82-0.291-1.091
		c0.015-0.007,0.916-0.494,0.928-0.498c0.47-0.253,1.104-0.206,1.808,0.2C553.551,448.523,554.711,450.523,554.711,452.167z"/>
	
		<linearGradient id="SVGID_73_" gradientUnits="userSpaceOnUse" x1="797.6904" y1="397.8169" x2="801.144" y2="403.7699" gradientTransform="matrix(1 0 0 -1 -247.6602 851.04)">
		<stop  offset="0.0354" style="stop-color:#9D9EB3"/>
		<stop  offset="0.5808" style="stop-color:#D4D1D8"/>
		<stop  offset="1" style="stop-color:#EEEBF2"/>
	</linearGradient>
	<path fill="url(#SVGID_73_)" d="M553.813,452.67c0,1.642-1.165,2.303-2.595,1.477c-1.43-0.828-2.592-2.826-2.592-4.468
		s1.162-2.303,2.592-1.475C552.647,449.026,553.813,451.031,553.813,452.67z"/>
	
		<linearGradient id="SVGID_74_" gradientUnits="userSpaceOnUse" x1="799.9688" y1="396.9404" x2="796.6161" y2="402.7499" gradientTransform="matrix(1 0 0 -1 -247.6602 851.04)">
		<stop  offset="0.1667" style="stop-color:#838091"/>
		<stop  offset="0.4167" style="stop-color:#A5A2B1"/>
		<stop  offset="0.5859" style="stop-color:#B7B4C2"/>
		<stop  offset="0.9091" style="stop-color:#9B98A7"/>
	</linearGradient>
	<path fill="url(#SVGID_74_)" d="M553.18,452.556c0,0.689-0.24,1.177-0.625,1.411c-0.014,0.009-1.244,0.742-1.244,0.742
		c-0.411,0.23-0.155-0.279-0.765-0.632c-1.231-0.71-2.225-2.427-2.225-3.834c0-0.697-0.646-0.701-0.249-0.934
		c0.01-0.007,1.316-0.753,1.316-0.753c0.414-0.227,0.96-0.184,1.564,0.165C552.183,449.43,553.18,451.149,553.18,452.556z"/>
	
		<linearGradient id="SVGID_75_" gradientUnits="userSpaceOnUse" x1="796.2852" y1="397.2446" x2="799.2512" y2="402.3553" gradientTransform="matrix(1 0 0 -1 -247.6602 851.04)">
		<stop  offset="0.0354" style="stop-color:#9D9EB3"/>
		<stop  offset="0.5808" style="stop-color:#D4D1D8"/>
		<stop  offset="1" style="stop-color:#EEEBF2"/>
	</linearGradient>
	<path fill="url(#SVGID_75_)" d="M551.869,453.321c0,1.409-0.998,1.977-2.225,1.269c-1.228-0.709-2.223-2.427-2.223-3.834
		c0-1.405,0.995-1.978,2.223-1.267C550.871,450.195,551.869,451.914,551.869,453.321z"/>
	<path fill="#E6E7E8" d="M551.344,448.141c-0.688-0.396-1.309-0.448-1.773-0.218c0.434-0.119,0.969-0.031,1.55,0.304
		c1.43,0.825,2.592,2.826,2.592,4.47c0,0.851-0.315,1.44-0.818,1.693c0.632-0.176,1.039-0.806,1.039-1.778
		C553.933,450.967,552.773,448.971,551.344,448.141z"/>
	
		<radialGradient id="SVGID_76_" cx="434.6191" cy="792.6729" r="1.1898" gradientTransform="matrix(2.0289 0 0 -2.0289 -331.0229 2059.4038)" gradientUnits="userSpaceOnUse">
		<stop  offset="0" style="stop-color:#FFFFFF"/>
		<stop  offset="1" style="stop-color:#000000"/>
	</radialGradient>
	<path fill="url(#SVGID_76_)" d="M549.746,449.424c-0.593-0.339-1.131-0.386-1.529-0.186c0.373-0.103,0.835-0.027,1.337,0.265
		c1.229,0.712,2.233,2.438,2.233,3.854c0,0.736-0.271,1.244-0.707,1.458c0.549-0.148,0.902-0.691,0.902-1.535
		C551.98,451.863,550.979,450.14,549.746,449.424z"/>
	<path fill="#FFFFFF" d="M550.824,452.95c0,0.816-0.57,1.145-1.282,0.734c-0.709-0.408-1.283-1.401-1.283-2.215
		c0-0.815,0.574-1.144,1.283-0.732C550.254,451.147,550.824,452.138,550.824,452.95z"/>
	
		<linearGradient id="SVGID_77_" gradientUnits="userSpaceOnUse" x1="637.4463" y1="354.3901" x2="923.7214" y2="509.432" gradientTransform="matrix(1 0 0 -1 -247.6602 851.04)">
		<stop  offset="0" style="stop-color:#7A94C8"/>
		<stop  offset="0.1509" style="stop-color:#7E96CA"/>
		<stop  offset="0.2919" style="stop-color:#899ED0"/>
		<stop  offset="0.4285" style="stop-color:#9CABDA"/>
		<stop  offset="0.5202" style="stop-color:#ADB6E3"/>
		<stop  offset="0.64" style="stop-color:#BDC4E8"/>
		<stop  offset="0.8722" style="stop-color:#E6E9F6"/>
		<stop  offset="1" style="stop-color:#FFFFFF"/>
	</linearGradient>
	<path fill="url(#SVGID_77_)" d="M559.142,436.877c-27.618-15.625-54.619-42.276-77.245-76.235l-0.311-0.176
		c-22.625,7.827-49.627,3.304-77.242-12.962l-1.057-0.62l1.493,51.599c5.24,79.983,32.521,114.797,76.428,189.163l1.071,0.615
		c43.907-23.66,71.188-26.973,76.428-100.911l1.492-49.879L559.142,436.877z"/>
	
		<linearGradient id="SVGID_78_" gradientUnits="userSpaceOnUse" x1="583.0811" y1="421.2285" x2="747.5175" y2="392.3878" gradientTransform="matrix(1 0 0 -1 -247.6602 851.04)">
		<stop  offset="0" style="stop-color:#7A94C8"/>
		<stop  offset="0.1509" style="stop-color:#7E96CA"/>
		<stop  offset="0.2919" style="stop-color:#899ED0"/>
		<stop  offset="0.4285" style="stop-color:#9CABDA"/>
		<stop  offset="0.5202" style="stop-color:#ADB6E3"/>
		<stop  offset="0.64" style="stop-color:#BDC4E8"/>
		<stop  offset="0.8722" style="stop-color:#E6E9F6"/>
		<stop  offset="1" style="stop-color:#FFFFFF"/>
	</linearGradient>
	<path fill="url(#SVGID_78_)" d="M568.426,428.831c-27.616-15.624-54.617-42.276-77.246-76.236l-0.305-0.175
		c-22.63,7.827-49.631,3.302-77.244-12.963l-1.057-0.622l-8.99,8.224l0.764,0.446c27.613,16.264,54.615,20.789,77.244,12.96
		l0.305,0.178c22.629,33.959,49.632,60.61,77.248,76.233l1.055,0.596l-1.494,49.879c-3.42,48.253-16.234,66.427-36.926,79.803
		c25.854-15.267,42.369-33.607,46.213-87.848l1.49-49.879L568.426,428.831z"/>
	
		<linearGradient id="SVGID_79_" gradientUnits="userSpaceOnUse" x1="698.5615" y1="528.1006" x2="854.5817" y2="369.6537" gradientTransform="matrix(1 0 0 -1 -247.6602 851.04)">
		<stop  offset="0" style="stop-color:#7A94C8"/>
		<stop  offset="0.1509" style="stop-color:#7E96CA"/>
		<stop  offset="0.2919" style="stop-color:#899ED0"/>
		<stop  offset="0.4285" style="stop-color:#9CABDA"/>
		<stop  offset="0.5202" style="stop-color:#ADB6E3"/>
		<stop  offset="0.64" style="stop-color:#BDC4E8"/>
		<stop  offset="0.8722" style="stop-color:#E6E9F6"/>
		<stop  offset="1" style="stop-color:#FFFFFF"/>
	</linearGradient>
	<path fill="url(#SVGID_79_)" d="M569.48,429.428l-1.055-0.598c-27.616-15.624-54.617-42.276-77.246-76.236l-0.305-0.175
		l-9.289,8.049l0.308,0.176c22.629,33.96,49.63,60.61,77.248,76.233l1.054,0.598L569.48,429.428z"/>
	
		<linearGradient id="SVGID_80_" gradientUnits="userSpaceOnUse" x1="783.9619" y1="358.0483" x2="920.4726" y2="280.5057" gradientTransform="matrix(1 0 0 -1 -247.6602 851.04)">
		<stop  offset="0" style="stop-color:#7A94C8"/>
		<stop  offset="0.1509" style="stop-color:#7E96CA"/>
		<stop  offset="0.2919" style="stop-color:#899ED0"/>
		<stop  offset="0.4285" style="stop-color:#9CABDA"/>
		<stop  offset="0.5202" style="stop-color:#ADB6E3"/>
		<stop  offset="0.64" style="stop-color:#BDC4E8"/>
		<stop  offset="0.8722" style="stop-color:#E6E9F6"/>
		<stop  offset="1" style="stop-color:#FFFFFF"/>
	</linearGradient>
	<path fill="url(#SVGID_80_)" d="M560.195,437.471l-1.492,49.879c-3.422,48.253-16.234,66.427-36.926,79.803
		c25.852-15.263,42.366-33.605,46.211-87.848l1.49-49.879L560.195,437.471z"/>
	
		<linearGradient id="SVGID_81_" gradientUnits="userSpaceOnUse" x1="576.1143" y1="411.2046" x2="736.891" y2="383.0057" gradientTransform="matrix(1 0 0 -1 -247.6602 851.04)">
		<stop  offset="0.096" style="stop-color:#0D108A"/>
		<stop  offset="1" style="stop-color:#1250C9"/>
	</linearGradient>
	<path fill="url(#SVGID_81_)" d="M556.273,438.873c-27.005-15.277-53.4-41.339-75.527-74.539l-0.301-0.172
		c-22.125,7.654-48.527,3.23-75.527-12.673l-1.03-0.607l-8.792,8.039l0.744,0.437c27.004,15.903,53.4,20.329,75.524,12.675
		l0.3,0.174c22.128,33.202,48.527,59.26,75.528,74.539l1.034,0.581l-1.46,48.77c-3.345,47.18-15.873,64.949-36.106,78.029
		c25.281-14.928,41.428-32.868,45.188-85.897l1.455-48.768L556.273,438.873z"/>
	
		<linearGradient id="SVGID_82_" gradientUnits="userSpaceOnUse" x1="689.0273" y1="515.7002" x2="841.573" y2="360.7815" gradientTransform="matrix(1 0 0 -1 -247.6602 851.04)">
		<stop  offset="0.096" style="stop-color:#0D108A"/>
		<stop  offset="1" style="stop-color:#1250C9"/>
	</linearGradient>
	<path fill="url(#SVGID_82_)" d="M557.306,439.458l-1.032-0.585c-27.005-15.277-53.4-41.334-75.525-74.539l-0.303-0.172l-9.081,7.87
		l0.301,0.171c22.127,33.203,48.526,59.261,75.527,74.539l1.034,0.584L557.306,439.458z"/>
	
		<linearGradient id="SVGID_83_" gradientUnits="userSpaceOnUse" x1="772.5273" y1="349.4268" x2="905.9887" y2="273.6176" gradientTransform="matrix(1 0 0 -1 -247.6602 851.04)">
		<stop  offset="0.096" style="stop-color:#0D108A"/>
		<stop  offset="1" style="stop-color:#1250C9"/>
	</linearGradient>
	<path fill="url(#SVGID_83_)" d="M548.227,447.326l-1.457,48.768c-3.346,47.182-15.873,64.949-36.107,78.031
		c25.282-14.928,41.428-32.868,45.188-85.899l1.455-48.768L548.227,447.326z"/>
	
		<radialGradient id="SVGID_84_" cx="352.0469" cy="761.8154" r="1.1901" gradientTransform="matrix(78.5633 0 0 -78.5633 -27175.1563 60303.2344)" gradientUnits="userSpaceOnUse">
		<stop  offset="0" style="stop-color:#444454"/>
		<stop  offset="1" style="stop-color:#E7E6F1"/>
	</radialGradient>
	<path fill="url(#SVGID_84_)" d="M560.225,436.103c-27.615-15.624-54.617-42.276-77.248-76.236l-0.306-0.175
		c-22.625,7.829-49.628,3.302-77.245-12.961l-1.055-0.624l0.076,2.578c27.363,15.917,54.094,20.316,76.523,12.557l0.305,0.175
		c22.631,33.956,49.632,60.61,77.246,76.234l1.055,0.598l-1.49,49.879c-2.727,38.465-11.432,57.8-25.328,70.846
		c14.89-13.065,24.194-32.381,27.03-72.394l1.492-49.882L560.225,436.103z"/>
	
		<radialGradient id="SVGID_85_" cx="352.5537" cy="762.5684" r="1.1897" gradientTransform="matrix(63.4627 0 0 -27.0478 -21883.5078 21213.7813)" gradientUnits="userSpaceOnUse">
		<stop  offset="0" style="stop-color:#231F20"/>
		<stop  offset="0.0613" style="stop-color:#353132"/>
		<stop  offset="0.3206" style="stop-color:#7C7A7A"/>
		<stop  offset="0.5533" style="stop-color:#B4B3B3"/>
		<stop  offset="0.7513" style="stop-color:#DDDCDC"/>
		<stop  offset="0.9065" style="stop-color:#F6F6F6"/>
		<stop  offset="1" style="stop-color:#FFFFFF"/>
	</radialGradient>
	<path opacity="0.4" fill="url(#SVGID_85_)" enable-background="new    " d="M490.484,620.19c41.711,0,75.521-14.416,75.521-32.191
		s-33.811-32.188-75.521-32.188s-75.523,14.413-75.523,32.188S448.773,620.19,490.484,620.19z"/>
	<path fill="#FFFFFF" d="M541.497,452.895c-27.615-15.626-54.614-42.276-77.245-76.233l-0.305-0.176
		c-22.629,7.825-49.633,3.302-77.248-12.962l-1.051-0.622l1.49,51.598c5.238,79.986,32.52,114.798,76.43,189.164l1.068,0.617
		c43.908-23.662,71.188-26.975,76.428-100.911l1.492-49.877L541.497,452.895z"/>
	
		<linearGradient id="SVGID_86_" gradientUnits="userSpaceOnUse" x1="565.4385" y1="405.2119" x2="729.8741" y2="376.3702" gradientTransform="matrix(1 0 0 -1 -247.6602 851.04)">
		<stop  offset="0" style="stop-color:#7A94C8"/>
		<stop  offset="0.1509" style="stop-color:#7E96CA"/>
		<stop  offset="0.2919" style="stop-color:#899ED0"/>
		<stop  offset="0.4285" style="stop-color:#9CABDA"/>
		<stop  offset="0.5202" style="stop-color:#ADB6E3"/>
		<stop  offset="0.64" style="stop-color:#BDC4E8"/>
		<stop  offset="0.8722" style="stop-color:#E6E9F6"/>
		<stop  offset="1" style="stop-color:#FFFFFF"/>
	</linearGradient>
	<path fill="url(#SVGID_86_)" d="M550.785,444.845c-27.617-15.625-54.617-42.273-77.248-76.235l-0.305-0.174
		c-22.627,7.827-49.629,3.302-77.245-12.962l-1.056-0.622l-8.99,8.223l0.764,0.447c27.612,16.264,54.614,20.789,77.242,12.96
		l0.309,0.177c22.629,33.96,49.628,60.61,77.244,76.234l1.057,0.596l-1.489,49.879c-3.424,48.257-16.237,66.424-36.931,79.805
		c25.854-15.27,42.367-33.61,46.212-87.849l1.494-49.879L550.785,444.845z"/>
	
		<linearGradient id="SVGID_87_" gradientUnits="userSpaceOnUse" x1="680.9229" y1="512.083" x2="836.9399" y2="353.6381" gradientTransform="matrix(1 0 0 -1 -247.6602 851.04)">
		<stop  offset="0" style="stop-color:#7A94C8"/>
		<stop  offset="0.1509" style="stop-color:#7E96CA"/>
		<stop  offset="0.2919" style="stop-color:#899ED0"/>
		<stop  offset="0.4285" style="stop-color:#9CABDA"/>
		<stop  offset="0.5202" style="stop-color:#ADB6E3"/>
		<stop  offset="0.64" style="stop-color:#BDC4E8"/>
		<stop  offset="0.8722" style="stop-color:#E6E9F6"/>
		<stop  offset="1" style="stop-color:#FFFFFF"/>
	</linearGradient>
	<path fill="url(#SVGID_87_)" d="M551.841,445.445l-1.056-0.6c-27.617-15.621-54.617-42.273-77.248-76.233l-0.305-0.176
		l-9.288,8.048l0.308,0.178c22.63,33.957,49.63,60.607,77.245,76.233l1.056,0.594L551.841,445.445z"/>
	
		<linearGradient id="SVGID_88_" gradientUnits="userSpaceOnUse" x1="766.3203" y1="342.0254" x2="902.8215" y2="264.489" gradientTransform="matrix(1 0 0 -1 -247.6602 851.04)">
		<stop  offset="0" style="stop-color:#7A94C8"/>
		<stop  offset="0.1509" style="stop-color:#7E96CA"/>
		<stop  offset="0.2919" style="stop-color:#899ED0"/>
		<stop  offset="0.4285" style="stop-color:#9CABDA"/>
		<stop  offset="0.5202" style="stop-color:#ADB6E3"/>
		<stop  offset="0.64" style="stop-color:#BDC4E8"/>
		<stop  offset="0.8722" style="stop-color:#E6E9F6"/>
		<stop  offset="1" style="stop-color:#FFFFFF"/>
	</linearGradient>
	<path fill="url(#SVGID_88_)" d="M542.555,453.489l-1.492,49.881c-3.424,48.255-16.238,66.422-36.928,79.807
		c25.852-15.273,42.367-33.614,46.211-87.853l1.492-49.879L542.555,453.489z"/>
	
		<linearGradient id="SVGID_89_" gradientUnits="userSpaceOnUse" x1="642.4111" y1="318.3721" x2="759.7191" y2="439.3954" gradientTransform="matrix(1 0 0 -1 -247.6602 851.04)">
		<stop  offset="0.0303" style="stop-color:#1250C9"/>
		<stop  offset="0.2653" style="stop-color:#1774D5"/>
		<stop  offset="0.7844" style="stop-color:#24CFF2"/>
		<stop  offset="1" style="stop-color:#2AF6FF"/>
	</linearGradient>
	<path fill="url(#SVGID_89_)" d="M458.639,569.813c-34.085-56.541-51.229-84.986-55.363-147.038l-0.943-32.575
		c21.885,9.893,42.867,13.05,61.766,9.287c18.897,25.584,39.877,46.657,61.762,62.031l-0.939,31.486
		c-4.135,57.288-21.283,65.933-55.373,83.119c-1.783,0.902-3.596,1.816-5.449,2.756C462.241,575.8,460.421,572.774,458.639,569.813z
		"/>
	
		<linearGradient id="SVGID_90_" gradientUnits="userSpaceOnUse" x1="817.2227" y1="362.2632" x2="687.9636" y2="361.7645" gradientTransform="matrix(1 0 0 -1 -247.6602 851.04)">
		<stop  offset="0.0303" style="stop-color:#1250C9"/>
		<stop  offset="0.2653" style="stop-color:#1774D5"/>
		<stop  offset="0.7844" style="stop-color:#24CFF2"/>
		<stop  offset="1" style="stop-color:#2AF6FF"/>
	</linearGradient>
	<path fill="url(#SVGID_90_)" d="M464.101,399.488c18.897,25.584,39.876,46.657,61.761,62.031l-0.941,31.486
		c-4.133,57.288-21.282,65.933-55.371,83.119c-1.783,0.902-3.598,1.816-5.448,2.756V399.488z"/>
	
		<radialGradient id="SVGID_91_" cx="352.0112" cy="761.7832" r="1.1899" gradientTransform="matrix(78.5621 0 0 -78.5621 -27189.5488 60315.8242)" gradientUnits="userSpaceOnUse">
		<stop  offset="0" style="stop-color:#4281EE"/>
		<stop  offset="1" style="stop-color:#D3D3F5"/>
	</radialGradient>
	<path fill="url(#SVGID_91_)" d="M542.58,452.122c-27.615-15.623-54.614-42.277-77.243-76.235l-0.31-0.178
		c-22.626,7.829-49.627,3.304-77.242-12.96l-1.056-0.624l0.073,2.578c27.363,15.917,54.094,20.315,76.525,12.554l0.303,0.178
		c22.63,33.955,49.631,60.61,77.246,76.233l1.057,0.598l-1.494,49.879c-2.724,38.467-11.431,57.798-25.328,70.845
		c14.893-13.064,24.197-32.378,27.029-72.393l1.495-49.879L542.58,452.122z"/>
	<path fill="#214CDE" d="M458.639,569.813c-34.085-56.541-51.229-84.986-55.363-147.038l-0.943-32.575
		c21.885,9.893,42.867,13.05,61.766,9.287c18.897,25.584,39.877,46.657,61.762,62.031l-0.939,31.486
		c-4.135,57.288-21.283,65.933-55.373,83.119c-1.783,0.902-3.596,1.816-5.449,2.756C462.241,575.8,460.421,572.774,458.639,569.813z
		"/>
	
		<radialGradient id="SVGID_92_" cx="352.5811" cy="761.9961" r="1.1899" gradientTransform="matrix(61.1462 0 0 -61.1462 -21094.9199 47065.6016)" gradientUnits="userSpaceOnUse">
		<stop  offset="0" style="stop-color:#FFFFFF"/>
		<stop  offset="1" style="stop-color:#000000"/>
	</radialGradient>
	<path fill="url(#SVGID_92_)" d="M464.098,399.488c-18.898,3.763-39.881,0.607-61.766-9.287l0.059,1.998
		c21.359,9.382,41.836,12.361,60.315,8.68c18.897,25.588,39.877,46.661,61.761,62.036l-0.939,31.483
		c-2.313,32.005-8.686,48.827-19.806,60.432c11.979-11.658,18.792-28.511,21.198-61.825l0.939-31.484
		C503.975,446.145,482.995,425.074,464.098,399.488z"/>
	
		<linearGradient id="SVGID_93_" gradientUnits="userSpaceOnUse" x1="814.748" y1="556.6279" x2="759.9785" y2="531.4484" gradientTransform="matrix(1 0 0 -1 -247.6602 851.04)">
		<stop  offset="0.0303" style="stop-color:#1250C9"/>
		<stop  offset="0.2653" style="stop-color:#1774D5"/>
		<stop  offset="0.7844" style="stop-color:#24CFF2"/>
		<stop  offset="1" style="stop-color:#2AF6FF"/>
	</linearGradient>
	<path fill="url(#SVGID_93_)" d="M515.367,322.769l-0.596-1.785c9.252-3.752,17.41-8.023,25.42-12.781
		c8.711-5.177,16.565-10.886,23.339-16.97l1.388,1.546c-6.876,6.175-14.837,11.964-23.667,17.209
		C533.152,314.798,524.713,318.975,515.367,322.769z"/>
</g>
</svg>
