<?xml version="1.0" encoding="UTF-8"?>
<svg id="_레이어_1" data-name="레이어 1" xmlns="http://www.w3.org/2000/svg" viewBox="0 0 374.98 375">
  <defs>
    <style>
      .cls-1, .cls-2 {
        stroke-width: 0px;
      }

      .cls-2 {
        fill: #fff;
      }
    </style>
  </defs>
  <path class="cls-2" d="m374.98,187.5c0,103.54-83.93,187.5-187.5,187.5S0,291.04,0,187.5,83.93,0,187.48,0s187.5,83.96,187.5,187.5"/>
  <path class="cls-1" d="m197.74,198.1l.73-.36c4.48-2.27,8.77-3.51,12.1-3.51,2.67,0,4.71.77,6.09,2.32,1.53,1.73,2.12,4.37,1.72,7.82-2.54,21.33-23.71,41.5-42.33,51.24-21.5,11.21-45.46,13.69-50.27,14.08-.29.02-.55.04-.86.04.41-.66,31.95-51.5,72.82-71.62m49.11-121.4c-7.69,25.18-26.65,41.32-41.16,51.67-3.84,2.74-.04,4.79.05,8.69.13,4.83-8.6,10.85-21.89,25.37,25.4-49.1,63-85.72,63-85.72m-125.17,199.58s.93-.01,2.48-.11h.01c7.83-.46,32.9-2.77,58.83-14.11,13.65-5.99,52.47-28.53,52.47-58.83,0-11.48-6.98-18.06-18.88-18.06-18.11,0-40,14.6-64.45,40.03-.63.79-1.76.23,1.39-4.9,6.1-9.94,19.98-35.32,50.31-65.18,17.73-17.46,8.7-24.14,8.7-24.14,0,0,17.91-8.23,31.41-25.77,8.07-10.5,18.3-31.11,13.83-36.71-3.68-4.66-11.26-2.3-28.19,12.61-21.06,18.54-52.95,72.56-70.25,104.96-4.29,8-29.19,51.06-46.9,81.62-3.14-1.09-6.51-2.74-9.99-5.2l-2.16,3.8c1.79,1.86,5.1,4.33,9.29,6.33-8.57,14.8-14.9,25.66-15.28,26.33-1.18,2.05-.09,2.93,1.22,2.35,1.63-.73,3.19-1.4,4.66-2.03,11.94-5.16,14.43-7.31,15.29-12.29,1.58-9.07,6.21-10.68,6.21-10.68m-4.5,21.58l-2.13,3.59h143.81l2.11-3.59H117.18Z"/>
</svg>