<?xml version="1.0" encoding="utf-8"?>
<!-- Generator: Adobe Illustrator 16.0.0, SVG Export Plug-In . SVG Version: 6.00 Build 0)  -->
<!DOCTYPE svg PUBLIC "-//W3C//DTD SVG 1.1//EN" "http://www.w3.org/Graphics/SVG/1.1/DTD/svg11.dtd">
<svg version="1.1" id="Layer_1" xmlns="http://www.w3.org/2000/svg" xmlns:xlink="http://www.w3.org/1999/xlink" x="0px" y="0px"
	 width="729.505px" height="460.333px" viewBox="0 0 729.505 460.333" enable-background="new 0 0 729.505 460.333"
	 xml:space="preserve">
<g>
	<g>
		<path fill="#224BE0" stroke="#224BE0" stroke-width="4.466" stroke-miterlimit="10" d="M471.98,436.624l-107.184-0.019H243.475
			c-31.322,0-62.655,0-93.984-0.015c-29.652-0.022-52.583-5.998-72.162-18.819c-43.956-28.784-63.539-70.668-56.65-121.129
			c6.655-48.679,35.342-82.975,83.058-99.406c-7.565-69.829,31.402-135.929,95.909-161.777c19.457-7.797,39.746-11.75,60.307-11.75
			c49.004,0,93.866,22.185,123.695,61.01c43.422-26.896,90.538-28.877,135.409-5.659c44.783,23.17,70.132,61.922,73.611,112.349
			c61.206,2.723,108.649,46.448,116.561,108.224c7.624,59.522-31.422,116.5-90.82,132.525c-14.183,3.82-28.356,4.343-39.122,4.362
			C543.516,436.605,507.751,436.624,471.98,436.624z M364.797,405.344l107.184,0.02c35.75,0,71.487-0.02,107.235-0.105
			c9.4-0.02,20.438-0.425,31.043-3.29c44.391-11.969,73.606-54.267,67.959-98.365c-6.11-47.73-43.717-81.068-91.448-81.068
			c-21.171,0-24.757-14.77-25.023-23.576c-1.301-42.218-20.498-73.221-57.054-92.134c-36.143-18.703-72.484-16.548-107.504,6.332
			c-3.988,2.602-9.398,5.591-15.951,5.591c-11.379,0-17.749-8.704-20.468-12.427c-23.847-32.634-60.593-51.348-100.818-51.348
			c-16.558,0-32.933,3.196-48.677,9.505c-52.487,21.034-83.76,75.643-76.039,132.8c1.946,14.439-4.215,24.039-18.319,28.524
			c-38.151,12.156-60.112,37.421-65.261,75.071c-5.217,38.195,9.181,68.734,42.794,90.743c14.269,9.34,31.762,13.701,55.058,13.709
			c31.32,0.019,62.653,0.019,93.968,0.019H364.797z"/>
	</g>
	<g>
		<path fill="#224BE0" stroke="#224BE0" stroke-width="4.466" stroke-miterlimit="10" d="M471.98,436.624l-107.184-0.019H243.475
			c-31.325,0-62.651,0-93.984-0.015c-29.652-0.022-52.583-5.998-72.162-18.819c-43.956-28.784-63.539-70.668-56.65-121.129
			c6.655-48.679,35.342-82.975,83.058-99.406c-7.565-69.829,31.402-135.929,95.909-161.777c19.457-7.797,39.746-11.75,60.307-11.75
			c49.004,0,93.866,22.185,123.695,61.01c43.422-26.896,90.538-28.877,135.409-5.659c44.783,23.17,70.132,61.922,73.611,112.349
			c61.206,2.723,108.649,46.448,116.561,108.224c7.624,59.522-31.422,116.5-90.82,132.525c-14.183,3.82-28.356,4.343-39.122,4.362
			C543.516,436.605,507.751,436.624,471.98,436.624z M364.797,405.344l107.184,0.02c35.746,0,71.493-0.02,107.235-0.105
			c9.4-0.02,20.438-0.425,31.043-3.29c44.391-11.969,73.606-54.267,67.959-98.365c-6.11-47.73-43.717-81.068-91.448-81.068
			c-21.171,0-24.757-14.77-25.023-23.576c-1.301-42.218-20.498-73.221-57.054-92.134c-36.143-18.703-72.484-16.548-107.504,6.332
			c-3.988,2.602-9.404,5.591-15.951,5.591c-11.379,0-17.749-8.704-20.468-12.427c-23.847-32.634-60.593-51.348-100.818-51.348
			c-16.558,0-32.933,3.196-48.677,9.505c-52.487,21.034-83.76,75.643-76.039,132.8c1.946,14.439-4.215,24.039-18.319,28.524
			c-38.151,12.156-60.112,37.421-65.261,75.071c-5.217,38.195,9.181,68.734,42.794,90.743c14.269,9.34,31.762,13.701,55.058,13.709
			c31.326,0.019,62.646,0.019,93.968,0.019H364.797z"/>
	</g>
	<g>
		<path fill="#224BE0" stroke="#224BE0" stroke-width="4.466" stroke-miterlimit="10" d="M392.411,357.143H321.93V302.79
			c-19.229-12.002-31.177-33.119-31.177-56.318c0-36.62,29.795-66.415,66.42-66.415c36.624,0,66.421,29.795,66.421,66.415
			c0,23.199-11.953,44.316-31.183,56.318V357.143z M353.192,325.882h7.957v-42.945l9.594-4.02
			c13.113-5.493,21.585-18.225,21.585-32.445c0-19.384-15.771-35.153-35.155-35.153c-19.389,0-35.162,15.77-35.162,35.153
			c0,14.221,8.48,26.952,21.588,32.445l9.594,4.02V325.882z"/>
	</g>
</g>
</svg>
