<svg width="175" height="58" viewBox="0 0 175 58" fill="none" xmlns="http://www.w3.org/2000/svg">
<g clip-path="url(#clip0_239_139)">
<path d="M166.37 0.5H8.17C3.93398 0.5 0.5 3.93398 0.5 8.17V49.6C0.5 53.836 3.93398 57.27 8.17 57.27H166.37C170.606 57.27 174.04 53.836 174.04 49.6V8.17C174.04 3.93398 170.606 0.5 166.37 0.5Z" fill="#231F20"/>
<path d="M90.31 31.9202C89.2016 31.934 88.122 32.2753 87.207 32.9012C86.2921 33.527 85.5826 34.4095 85.168 35.4376C84.7533 36.4656 84.652 37.5934 84.8767 38.6789C85.1014 39.7644 85.6421 40.7592 86.4308 41.5382C87.2194 42.3172 88.2209 42.8455 89.3091 43.0568C90.3973 43.268 91.5237 43.1527 92.5466 42.7254C93.5694 42.298 94.443 41.5777 95.0575 40.6551C95.672 39.7325 95.9999 38.6487 96 37.5402C96.0106 36.811 95.8771 36.0869 95.6072 35.4094C95.3372 34.7319 94.9362 34.1144 94.4271 33.5922C93.9179 33.0701 93.3107 32.6536 92.6402 32.3667C91.9698 32.0797 91.2493 31.928 90.52 31.9202H90.31ZM90.31 40.9202C89.6354 40.9698 88.9611 40.8183 88.3726 40.4847C87.7841 40.1511 87.3077 39.6504 87.0038 39.0461C86.6998 38.4417 86.5819 37.7608 86.665 37.0895C86.7481 36.4181 87.0284 35.7864 87.4705 35.2744C87.9125 34.7624 88.4966 34.3929 89.1486 34.2128C89.8007 34.0327 90.4915 34.0501 91.1338 34.2626C91.776 34.4752 92.3407 34.8735 92.7566 35.407C93.1724 35.9406 93.4207 36.5855 93.47 37.2602C93.475 37.3401 93.475 37.4203 93.47 37.5002C93.4984 37.9388 93.4386 38.3787 93.2941 38.7939C93.1496 39.209 92.9234 39.591 92.6288 39.9172C92.3343 40.2435 91.9773 40.5074 91.579 40.6934C91.1808 40.8794 90.7493 40.9837 90.31 41.0002V40.9202ZM78 31.9202C76.8898 31.9261 75.8062 32.2608 74.8859 32.8819C73.9657 33.503 73.25 34.3828 72.8293 35.4102C72.4085 36.4376 72.3015 37.5667 72.5217 38.6549C72.7419 39.7431 73.2795 40.7416 74.0667 41.5246C74.8538 42.3076 75.8553 42.8399 76.9446 43.0543C78.0339 43.2687 79.1624 43.1557 80.1876 42.7295C81.2127 42.3032 82.0887 41.5829 82.7049 40.6594C83.3211 39.7358 83.65 38.6504 83.65 37.5402C83.6606 36.8118 83.5274 36.0885 83.2581 35.4117C82.9888 34.7348 82.5887 34.1177 82.0806 33.5957C81.5725 33.0737 80.9665 32.657 80.2972 32.3695C79.6279 32.082 78.9084 31.9293 78.18 31.9202H78ZM78 40.9202C77.3256 40.9678 76.6522 40.8145 76.0649 40.4796C75.4776 40.1447 75.0027 39.6432 74.7003 39.0385C74.3979 38.4339 74.2815 37.7531 74.3657 37.0823C74.45 36.4115 74.7313 35.7807 75.1739 35.2696C75.6165 34.7586 76.2007 34.3902 76.8526 34.211C77.5045 34.0318 78.1949 34.0499 78.8366 34.2629C79.4782 34.4759 80.0424 34.8743 80.4577 35.4078C80.873 35.9413 81.1209 36.5859 81.17 37.2602V37.5002C81.1984 37.9397 81.1382 38.3803 80.9932 38.7961C80.8481 39.2119 80.621 39.5943 80.3253 39.9207C80.0297 40.2471 79.6716 40.5108 79.2722 40.6963C78.8727 40.8817 78.4401 40.985 78 41.0002V40.9202ZM63.33 33.6402V36.0002H69C68.9281 37.1189 68.4725 38.1785 67.71 39.0002C67.1378 39.5829 66.4496 40.039 65.6899 40.3387C64.9302 40.6384 64.116 40.7752 63.3 40.7402C61.6185 40.7402 60.0059 40.0722 58.817 38.8833C57.628 37.6943 56.96 36.0817 56.96 34.4002C56.96 32.7187 57.628 31.1061 58.817 29.9171C60.0059 28.7282 61.6185 28.0602 63.3 28.0602C64.0936 28.0451 64.8822 28.1875 65.6204 28.4793C66.3585 28.7712 67.0313 29.2065 67.6 29.7602L69.24 28.0702C68.4512 27.2893 67.5138 26.6745 66.4832 26.2623C65.4526 25.85 64.3498 25.6487 63.24 25.6702C60.9247 25.5986 58.6757 26.4497 56.9879 28.0362C55.3001 29.6228 54.3116 31.8149 54.24 34.1302C54.1684 36.4455 55.0195 38.6945 56.6061 40.3823C58.1926 42.0701 60.3847 43.0586 62.7 43.1302H63.24C64.3721 43.1732 65.5005 42.9752 66.5504 42.5494C67.6002 42.1236 68.5477 41.4797 69.33 40.6602C70.7202 39.1413 71.4597 37.1381 71.39 35.0802C71.4002 34.5841 71.36 34.0882 71.27 33.6002L63.33 33.6402ZM123.18 35.4902C122.839 34.4749 122.195 33.5884 121.335 32.9501C120.475 32.3118 119.441 31.9524 118.37 31.9202C117.669 31.9228 116.975 32.0635 116.328 32.3343C115.681 32.6051 115.094 33.0007 114.6 33.4984C114.106 33.9961 113.715 34.5863 113.449 35.2351C113.183 35.884 113.047 36.5789 113.05 37.2802C113.05 37.3702 113.05 37.4502 113.05 37.5402C113.021 38.9999 113.572 40.4117 114.582 41.4654C115.593 42.5191 116.98 43.1287 118.44 43.1602H118.63C119.554 43.1707 120.466 42.9502 121.283 42.5189C122.101 42.0876 122.797 41.459 123.31 40.6902L121.4 39.4202C121.118 39.9013 120.714 40.3002 120.23 40.5773C119.746 40.8545 119.198 41.0003 118.64 41.0002C118.067 41.0231 117.5 40.872 117.015 40.5668C116.529 40.2616 116.148 39.8165 115.92 39.2902L123.43 36.1902L123.18 35.4902ZM115.51 37.3602C115.458 36.5436 115.732 35.7396 116.272 35.1247C116.812 34.5098 117.573 34.1341 118.39 34.0802H118.45C118.878 34.0499 119.306 34.1479 119.678 34.3616C120.05 34.5754 120.35 34.8951 120.54 35.2802L115.51 37.3602ZM109.4 42.8202H111.87V26.3002H109.4V42.8202ZM105.35 33.1702H105.27C104.889 32.7584 104.424 32.4335 103.906 32.2178C103.389 32.0021 102.831 31.9006 102.27 31.9202C100.837 32.0057 99.4916 32.635 98.5075 33.6796C97.5235 34.7242 96.9754 36.1051 96.9754 37.5402C96.9754 38.9753 97.5235 40.3562 98.5075 41.4008C99.4916 42.4454 100.837 43.0747 102.27 43.1602C102.833 43.1808 103.394 43.0768 103.913 42.8555C104.432 42.6342 104.895 42.3012 105.27 41.8802H105.35V42.7102C105.35 44.8602 104.21 45.9902 102.35 45.9902C101.733 45.9752 101.135 45.777 100.631 45.4209C100.127 45.0647 99.7401 44.5667 99.52 43.9902L97.41 44.8802C97.8183 45.8661 98.5132 46.7067 99.4046 47.2933C100.296 47.8799 101.343 48.1853 102.41 48.1702C105.31 48.1702 107.76 46.4702 107.76 42.3202V32.2602H105.41L105.35 33.1702ZM102.53 41.0002C101.671 40.9343 100.868 40.5465 100.282 39.9143C99.6967 39.282 99.3714 38.452 99.3714 37.5902C99.3714 36.7284 99.6967 35.8984 100.282 35.2661C100.868 34.6339 101.671 34.2461 102.53 34.1802C102.954 34.2042 103.368 34.3125 103.75 34.4988C104.131 34.6851 104.471 34.9455 104.751 35.2649C105.03 35.5844 105.243 35.9563 105.377 36.359C105.51 36.7617 105.563 37.1871 105.53 37.6102C105.596 38.4403 105.33 39.2628 104.79 39.8967C104.25 40.5305 103.48 40.9239 102.65 40.9902H102.53V41.0002ZM134.75 26.3002H128.84V42.8202H131.3V36.5602H134.75C136.111 36.6146 137.437 36.1262 138.438 35.2026C139.438 34.279 140.031 32.9958 140.085 31.6352C140.139 30.2746 139.651 28.9482 138.727 27.9477C137.804 26.9472 136.521 26.3546 135.16 26.3002C135.024 26.2902 134.886 26.2902 134.75 26.3002ZM134.81 34.3002H131.3V28.6002H134.81C135.561 28.5591 136.297 28.8178 136.857 29.3195C137.416 29.8211 137.754 30.5246 137.795 31.2752C137.836 32.0258 137.577 32.7619 137.076 33.3217C136.574 33.8815 135.871 34.2191 135.12 34.2602L134.81 34.3002ZM150.06 31.9202C149.159 31.8683 148.262 32.0798 147.479 32.5291C146.696 32.9784 146.06 33.6459 145.65 34.4502L147.84 35.3702C148.127 34.9264 148.541 34.5784 149.027 34.3706C149.513 34.1627 150.05 34.1044 150.569 34.2031C151.089 34.3019 151.567 34.5531 151.943 34.9249C152.319 35.2966 152.575 35.7719 152.68 36.2902V36.4502C151.89 36.0279 151.006 35.8113 150.11 35.8202C147.75 35.8202 145.36 37.1202 145.36 39.5302C145.381 40.0414 145.505 40.5431 145.725 41.0054C145.944 41.4676 146.255 41.881 146.637 42.2207C147.02 42.5604 147.467 42.8195 147.952 42.9827C148.437 43.1458 148.95 43.2096 149.46 43.1702C150.084 43.2048 150.706 43.0708 151.26 42.7823C151.814 42.4937 152.281 42.0612 152.61 41.5302H152.69V42.8002H155.08V36.4402C155.08 33.5302 152.91 31.8802 150.08 31.8802L150.06 31.9202ZM149.76 40.9202C148.94 40.9202 147.82 40.5202 147.82 39.5302C147.82 38.2402 149.23 37.7602 150.43 37.7602C151.243 37.7204 152.051 37.911 152.76 38.3102C152.669 39.0401 152.314 39.7113 151.761 40.1961C151.207 40.681 150.496 40.9458 149.76 40.9402V40.9202ZM163.76 32.2302L161 39.4102H160.91L158 32.2402H155.3L159.69 42.2402L157.23 47.8102H159.8L166.58 32.2002L163.76 32.2302ZM141.54 42.8002H144V26.3002H141.53L141.54 42.8002Z" fill="white"/>
<path d="M14 13.1508C13.5773 13.6711 13.3666 14.3318 13.41 15.0008V44.2008C13.366 44.8729 13.5766 45.537 14 46.0608L14.1 46.1608L30.48 29.8008V29.4108L14.12 13.0508L14 13.1508Z" fill="#5BC9F4"/>
<path d="M35.94 35.25L30.48 29.8V29.41L35.94 24L36.06 24.08L42.52 27.74C44.37 28.74 44.37 30.51 42.52 31.56L36.07 35.23L35.94 35.25Z" fill="url(#paint0_linear_239_139)"/>
<path d="M36.07 35.1796L30.48 29.5996L14 45.9996C14.3765 46.3319 14.8569 46.5227 15.3588 46.5391C15.8607 46.5556 16.3526 46.3966 16.75 46.0896L36.07 35.1796Z" fill="url(#paint1_linear_239_139)"/>
<path d="M36.07 23.9993L16.76 12.9993C16.3669 12.688 15.8766 12.5253 15.3754 12.54C14.8742 12.5546 14.3943 12.7456 14.02 13.0793L30.45 29.5793L36.07 23.9993Z" fill="url(#paint2_linear_239_139)"/>
<path d="M60.8202 14.0791C60.3185 13.6289 59.674 13.3704 59.0002 13.3491C58.6137 13.3556 58.2323 13.4385 57.878 13.5931C57.5237 13.7476 57.2034 13.9708 56.9357 14.2496C56.668 14.5285 56.4581 14.8576 56.3182 15.2179C56.1782 15.5782 56.1109 15.9627 56.1202 16.3491C56.1069 16.7309 56.1691 17.1114 56.3032 17.469C56.4374 17.8266 56.6408 18.1542 56.9019 18.433C57.163 18.7117 57.4766 18.9362 57.8247 19.0934C58.1728 19.2506 58.5485 19.3375 58.9302 19.3491H59.0002C59.5907 19.4053 60.1795 19.227 60.6398 18.8529C61.1 18.4787 61.3947 17.9386 61.4602 17.3491V17.2791H59.2602V16.3691H62.6602C62.6602 19.1091 61.2102 20.3691 58.9902 20.3691C57.9294 20.3691 56.9119 19.9477 56.1618 19.1976C55.4117 18.4474 54.9902 17.43 54.9902 16.3691C54.9902 15.3083 55.4117 14.2909 56.1618 13.5407C56.9119 12.7906 57.9294 12.3691 58.9902 12.3691C59.9512 12.3672 60.8783 12.7238 61.5902 13.3691L60.8202 14.0791Z" fill="white"/>
<path d="M68.6601 12.4395V13.4395H65.1101V15.8995H68.2101V16.8995H65.1101V19.2495H68.7801V20.2495H64.0601V12.4395H68.6601Z" fill="white"/>
<path d="M75.5199 12.4395V13.4395H73.1199V20.2295H72.0599V13.4395H69.6899V12.4395H75.5199Z" fill="white"/>
<path d="M80.51 12.4395V20.2295H79.46V12.4395H80.51Z" fill="white"/>
<path d="M87.6601 12.4395V13.4395H85.3001V20.2295H84.2401V13.4395H81.8901V12.4395H87.6601Z" fill="white"/>
<path d="M95.0699 12.3491C95.8635 12.3372 96.6426 12.5616 97.3083 12.9938C97.9739 13.426 98.4959 14.0465 98.8079 14.7763C99.1199 15.5061 99.2077 16.3122 99.0602 17.092C98.9127 17.8718 98.5366 18.5902 97.9796 19.1556C97.4227 19.721 96.7101 20.108 95.9326 20.2672C95.1551 20.4265 94.3477 20.3509 93.6133 20.05C92.8789 19.7491 92.2506 19.2365 91.8084 18.5775C91.3662 17.9184 91.13 17.1427 91.1299 16.3491V16.2891C91.1295 15.247 91.5358 14.2459 92.2623 13.4988C92.9888 12.7518 93.9782 12.3177 95.0199 12.2891L95.0699 12.3491ZM95.0699 19.3491C95.4575 19.3531 95.842 19.2795 96.2006 19.1324C96.5592 18.9853 96.8847 18.7679 97.1579 18.4928C97.431 18.2178 97.6463 17.8908 97.7909 17.5312C97.9355 17.1716 98.0066 16.7866 97.9999 16.3991V16.3391C98.0569 15.5766 97.8087 14.8226 97.3098 14.2432C96.811 13.6637 96.1024 13.3061 95.3399 13.2491C94.5774 13.192 93.8235 13.4403 93.244 13.9391C92.6645 14.4379 92.3069 15.1466 92.2499 15.9091C92.2399 16.0522 92.2399 16.1959 92.2499 16.3391C92.2352 16.7211 92.2965 17.1022 92.4301 17.4604C92.5638 17.8186 92.7672 18.1467 93.0285 18.4258C93.2899 18.7048 93.604 18.9292 93.9527 19.086C94.3014 19.2427 94.6777 19.3288 95.0599 19.3391L95.0699 19.3491Z" fill="white"/>
<path d="M105.22 20.2295L101.68 14.3795V20.2295H100.63V12.4395H101.63L105.14 18.2495V12.4395H106.14V20.2295H105.22Z" fill="white"/>
</g>
<defs>
<linearGradient id="paint0_linear_239_139" x1="41.32" y1="29.6" x2="9.36998" y2="29.6" gradientUnits="userSpaceOnUse">
<stop stop-color="#FEE000"/>
<stop offset="0.42" stop-color="#FBBC0E"/>
<stop offset="0.78" stop-color="#FAA418"/>
<stop offset="1" stop-color="#F99B1C"/>
</linearGradient>
<linearGradient id="paint1_linear_239_139" x1="33.03" y1="32.6296" x2="2.98001" y2="62.6896" gradientUnits="userSpaceOnUse">
<stop stop-color="#EF4547"/>
<stop offset="1" stop-color="#C6186D"/>
</linearGradient>
<linearGradient id="paint2_linear_239_139" x1="2.84002" y1="-3.6107" x2="27.38" y2="20.9193" gradientUnits="userSpaceOnUse">
<stop stop-color="#279E6F"/>
<stop offset="0.04" stop-color="#2BA06F"/>
<stop offset="0.46" stop-color="#53B26C"/>
<stop offset="0.8" stop-color="#6BBD6A"/>
<stop offset="1" stop-color="#74C169"/>
</linearGradient>
<clipPath id="clip0_239_139">
<rect width="174.54" height="57.77" fill="white"/>
</clipPath>
</defs>
</svg>
