<svg width="182" height="237" viewBox="0 0 182 237" fill="none" xmlns="http://www.w3.org/2000/svg">
<path d="M52.1307 112.672L51.1523 40.967L22.8252 41.7796C22.2195 41.7796 21.707 41.3016 21.707 40.6801L21.5672 36.0432C21.5672 35.4696 21.9865 34.9916 22.5922 34.9437L51.0591 34.1311L50.5932 1.14684C50.5932 0.525401 51.0591 -0.000435379 51.6648 -0.000435379H56.1375C56.7432 -0.0960419 57.2091 0.429794 57.2557 1.05124L57.7216 33.9399L156.401 31.1673C157.426 31.1673 157.892 32.458 157.053 33.0794L53.8546 113.532C53.1557 114.058 52.1773 113.532 52.1307 112.672ZM57.7682 40.7757L58.6068 101.247L139.162 38.4812L57.7682 40.7757Z" fill="#E7261F"/>
<path d="M177.179 133.561H1.81111C1.11225 133.561 0.553162 132.987 0.553162 132.27V80.1169C0.553162 79.3998 1.15884 78.7784 1.90429 78.874L164.133 91.8765L161.245 76.5316C161.151 75.958 161.524 75.3843 162.083 75.2887L166.603 74.3805C167.115 74.2849 167.628 74.6195 167.767 75.1931L171.029 92.4501L180.393 93.2149C180.952 93.2149 181.372 93.7886 181.325 94.3622L180.953 99.0469C180.953 99.6206 180.44 100.051 179.881 100.003L172.287 99.3816L178.437 132.079C178.576 132.892 178.017 133.609 177.225 133.609L177.179 133.561ZM7.16905 126.773H170.656L165.391 98.8079L7.16905 86.0923V126.773Z" fill="#E7261F"/>
<path d="M92.4784 236.865C83.766 236.865 75.333 235.097 67.366 231.655C59.6785 228.308 52.7831 223.528 46.8661 217.457C40.9491 211.386 36.29 204.311 33.0286 196.424C29.6741 188.249 27.9503 179.597 27.9503 170.658C27.9503 161.719 29.6741 153.066 33.0286 144.892C36.29 137.004 40.9491 129.929 46.8661 123.858C52.7831 117.787 59.6785 113.007 67.366 109.661C75.333 106.219 83.766 104.45 92.4784 104.45C101.191 104.45 109.624 106.219 117.591 109.661C125.278 113.007 132.174 117.787 138.091 123.858C144.008 129.929 148.667 137.004 151.928 144.892C155.283 153.066 157.007 161.719 157.007 170.658C157.007 179.597 155.283 188.249 151.928 196.424C148.667 204.311 144.008 211.386 138.091 217.457C132.174 223.528 125.278 228.308 117.591 231.655C109.624 235.097 101.191 236.865 92.4784 236.865ZM92.4784 111.334C84.6512 111.334 77.1035 112.911 69.9751 115.971C63.0797 118.935 56.9297 123.237 51.6184 128.686C46.307 134.136 42.1604 140.494 39.2252 147.521C36.1968 154.835 34.7059 162.579 34.7059 170.61C34.7059 178.641 36.2434 186.385 39.2252 193.699C42.1138 200.774 46.307 207.084 51.6184 212.533C56.9297 217.983 63.1263 222.237 69.9751 225.249C77.1035 228.356 84.6512 229.886 92.4784 229.886C100.306 229.886 107.853 228.308 114.982 225.249C121.877 222.285 128.027 217.983 133.339 212.533C138.65 207.084 142.796 200.726 145.732 193.699C148.76 186.385 150.251 178.641 150.251 170.61C150.251 162.579 148.713 154.835 145.732 147.521C142.843 140.446 138.65 134.136 133.339 128.686C128.027 123.237 121.831 118.982 114.982 115.971C107.853 112.864 100.306 111.334 92.4784 111.334Z" fill="#E7261F"/>
<path d="M126.021 170.657H110.226V236.865H126.021V170.657Z" fill="#E7261F"/>
</svg>
