<svg width="315" height="67" viewBox="0 0 315 67" fill="none" xmlns="http://www.w3.org/2000/svg">
<path d="M221.444 0.699219V55.0515L216.971 60.2143L212.499 55.0515V0.699219H192.045V44.9173C192.045 49.0761 192.232 52.2789 192.651 54.5735C193.07 56.8681 194.002 58.9236 195.446 60.7879C197.31 62.9869 200.152 64.5644 203.972 65.5683C207.793 66.5721 212.452 67.0502 217.903 67.0502C222.702 67.0502 226.709 66.6677 229.923 65.9029C233.138 65.138 235.701 63.7995 237.564 61.8874C239.428 59.9753 240.639 57.9676 241.245 55.8642C241.804 53.7609 242.084 51.1317 242.084 47.9289V0.747032H221.444V0.699219Z" fill="#E7261F"/>
<path d="M50.4112 66.9546H28.3738V39.1331H21.9908V66.9546H0V0.699219H22.0374V24.4096H28.4203V0.699219H50.4578V66.9546H50.4112Z" fill="#E7261F"/>
<path d="M100.171 66.7622H78.2269V0.506836H100.171V66.7622Z" fill="#E7261F"/>
<path d="M165.397 66.7622H127.519V0.506836H164.046V13.6527H149.463V26.3206H163.207V38.9884H149.463V53.6163H165.397V66.7622Z" fill="#E7261F"/>
<path d="M314.999 13.7006H302.187V66.7622H280.243V13.7006H267.104V0.554688H314.999V13.7006Z" fill="#E7261F"/>
</svg>
